<svg xmlns="http://www.w3.org/2000/svg" xmlns:xlink="http://www.w3.org/1999/xlink" width="1440" height="143.709" viewBox="0 0 1440 143.709"><defs><style>.a,.c{fill:none;}.b{opacity:0.7;clip-path:url(#a);}.c{stroke:#00727c;stroke-miterlimit:10;}</style><clipPath id="a"><rect class="a" width="1440" height="143.709"/></clipPath></defs><g class="b"><g transform="translate(-934.705 -877.332)"><g transform="translate(5)"><path class="c" d="M964.373,887.8l-9.935-9.935h19.934Z"/><path class="c" d="M964.437,926.326l9.935,9.935H954.438Z"/><path class="c" d="M983.67,907.029l9.935-9.935v19.934Z"/><path class="c" d="M945.14,907.093l-9.935,9.935V897.094Z"/><path class="c" d="M935.264,877.832a25.6,25.6,0,0,0,25.6,25.6v-.005a25.583,25.583,0,0,0-25.586-25.591Z"/><path class="c" d="M993.6,877.861a25.6,25.6,0,0,0-25.6,25.6h.006A25.583,25.583,0,0,0,993.6,877.87Z"/><path class="c" d="M993.6,936.289a25.6,25.6,0,0,0-25.6-25.6v.006a25.583,25.583,0,0,0,25.587,25.59Z"/><path class="c" d="M935.264,936.261a25.6,25.6,0,0,0,25.6-25.6h-.006a25.583,25.583,0,0,0-25.59,25.587Z"/></g></g><g transform="translate(-858.705 -877.332)"><g transform="translate(5)"><path class="c" d="M964.373,887.8l-9.935-9.935h19.934Z"/><path class="c" d="M964.437,926.326l9.935,9.935H954.438Z"/><path class="c" d="M983.67,907.029l9.935-9.935v19.934Z"/><path class="c" d="M945.14,907.093l-9.935,9.935V897.094Z"/><path class="c" d="M935.264,877.832a25.6,25.6,0,0,0,25.6,25.6v-.005a25.583,25.583,0,0,0-25.586-25.591Z"/><path class="c" d="M993.6,877.861a25.6,25.6,0,0,0-25.6,25.6h.006A25.583,25.583,0,0,0,993.6,877.87Z"/><path class="c" d="M993.6,936.289a25.6,25.6,0,0,0-25.6-25.6v.006a25.583,25.583,0,0,0,25.587,25.59Z"/><path class="c" d="M935.264,936.261a25.6,25.6,0,0,0,25.6-25.6h-.006a25.583,25.583,0,0,0-25.59,25.587Z"/></g></g><g transform="translate(-782.705 -877.332)"><g transform="translate(5)"><path class="c" d="M964.373,887.8l-9.935-9.935h19.934Z"/><path class="c" d="M964.437,926.326l9.935,9.935H954.438Z"/><path class="c" d="M983.67,907.029l9.935-9.935v19.934Z"/><path class="c" d="M945.14,907.093l-9.935,9.935V897.094Z"/><path class="c" d="M935.264,877.832a25.6,25.6,0,0,0,25.6,25.6v-.005a25.583,25.583,0,0,0-25.586-25.591Z"/><path class="c" d="M993.6,877.861a25.6,25.6,0,0,0-25.6,25.6h.006A25.583,25.583,0,0,0,993.6,877.87Z"/><path class="c" d="M993.6,936.289a25.6,25.6,0,0,0-25.6-25.6v.006a25.583,25.583,0,0,0,25.587,25.59Z"/><path class="c" d="M935.264,936.261a25.6,25.6,0,0,0,25.6-25.6h-.006a25.583,25.583,0,0,0-25.59,25.587Z"/></g></g><g transform="translate(-706.705 -877.332)"><g transform="translate(5)"><path class="c" d="M964.373,887.8l-9.935-9.935h19.934Z"/><path class="c" d="M964.437,926.326l9.935,9.935H954.438Z"/><path class="c" d="M983.67,907.029l9.935-9.935v19.934Z"/><path class="c" d="M945.14,907.093l-9.935,9.935V897.094Z"/><path class="c" d="M935.264,877.832a25.6,25.6,0,0,0,25.6,25.6v-.005a25.583,25.583,0,0,0-25.586-25.591Z"/><path class="c" d="M993.6,877.861a25.6,25.6,0,0,0-25.6,25.6h.006A25.583,25.583,0,0,0,993.6,877.87Z"/><path class="c" d="M993.6,936.289a25.6,25.6,0,0,0-25.6-25.6v.006a25.583,25.583,0,0,0,25.587,25.59Z"/><path class="c" d="M935.264,936.261a25.6,25.6,0,0,0,25.6-25.6h-.006a25.583,25.583,0,0,0-25.59,25.587Z"/></g></g><g transform="translate(-630.705 -877.332)"><g transform="translate(5)"><path class="c" d="M964.373,887.8l-9.935-9.935h19.934Z"/><path class="c" d="M964.437,926.326l9.935,9.935H954.438Z"/><path class="c" d="M983.67,907.029l9.935-9.935v19.934Z"/><path class="c" d="M945.14,907.093l-9.935,9.935V897.094Z"/><path class="c" d="M935.264,877.832a25.6,25.6,0,0,0,25.6,25.6v-.005a25.583,25.583,0,0,0-25.586-25.591Z"/><path class="c" d="M993.6,877.861a25.6,25.6,0,0,0-25.6,25.6h.006A25.583,25.583,0,0,0,993.6,877.87Z"/><path class="c" d="M993.6,936.289a25.6,25.6,0,0,0-25.6-25.6v.006a25.583,25.583,0,0,0,25.587,25.59Z"/><path class="c" d="M935.264,936.261a25.6,25.6,0,0,0,25.6-25.6h-.006a25.583,25.583,0,0,0-25.59,25.587Z"/></g></g><g transform="translate(-554.705 -877.332)"><g transform="translate(5)"><path class="c" d="M964.373,887.8l-9.935-9.935h19.934Z"/><path class="c" d="M964.437,926.326l9.935,9.935H954.438Z"/><path class="c" d="M983.67,907.029l9.935-9.935v19.934Z"/><path class="c" d="M945.14,907.093l-9.935,9.935V897.094Z"/><path class="c" d="M935.264,877.832a25.6,25.6,0,0,0,25.6,25.6v-.005a25.583,25.583,0,0,0-25.586-25.591Z"/><path class="c" d="M993.6,877.861a25.6,25.6,0,0,0-25.6,25.6h.006A25.583,25.583,0,0,0,993.6,877.87Z"/><path class="c" d="M993.6,936.289a25.6,25.6,0,0,0-25.6-25.6v.006a25.583,25.583,0,0,0,25.587,25.59Z"/><path class="c" d="M935.264,936.261a25.6,25.6,0,0,0,25.6-25.6h-.006a25.583,25.583,0,0,0-25.59,25.587Z"/></g></g><g transform="translate(-478.705 -877.332)"><g transform="translate(5)"><path class="c" d="M964.373,887.8l-9.935-9.935h19.934Z"/><path class="c" d="M964.437,926.326l9.935,9.935H954.438Z"/><path class="c" d="M983.67,907.029l9.935-9.935v19.934Z"/><path class="c" d="M945.14,907.093l-9.935,9.935V897.094Z"/><path class="c" d="M935.264,877.832a25.6,25.6,0,0,0,25.6,25.6v-.005a25.583,25.583,0,0,0-25.586-25.591Z"/><path class="c" d="M993.6,877.861a25.6,25.6,0,0,0-25.6,25.6h.006A25.583,25.583,0,0,0,993.6,877.87Z"/><path class="c" d="M993.6,936.289a25.6,25.6,0,0,0-25.6-25.6v.006a25.583,25.583,0,0,0,25.587,25.59Z"/><path class="c" d="M935.264,936.261a25.6,25.6,0,0,0,25.6-25.6h-.006a25.583,25.583,0,0,0-25.59,25.587Z"/></g></g><g transform="translate(-402.705 -877.332)"><g transform="translate(5)"><path class="c" d="M964.373,887.8l-9.935-9.935h19.934Z"/><path class="c" d="M964.437,926.326l9.935,9.935H954.438Z"/><path class="c" d="M983.67,907.029l9.935-9.935v19.934Z"/><path class="c" d="M945.14,907.093l-9.935,9.935V897.094Z"/><path class="c" d="M935.264,877.832a25.6,25.6,0,0,0,25.6,25.6v-.005a25.583,25.583,0,0,0-25.586-25.591Z"/><path class="c" d="M993.6,877.861a25.6,25.6,0,0,0-25.6,25.6h.006A25.583,25.583,0,0,0,993.6,877.87Z"/><path class="c" d="M993.6,936.289a25.6,25.6,0,0,0-25.6-25.6v.006a25.583,25.583,0,0,0,25.587,25.59Z"/><path class="c" d="M935.264,936.261a25.6,25.6,0,0,0,25.6-25.6h-.006a25.583,25.583,0,0,0-25.59,25.587Z"/></g></g><g transform="translate(-326.705 -877.332)"><g transform="translate(5)"><path class="c" d="M964.373,887.8l-9.935-9.935h19.934Z"/><path class="c" d="M964.437,926.326l9.935,9.935H954.438Z"/><path class="c" d="M983.67,907.029l9.935-9.935v19.934Z"/><path class="c" d="M945.14,907.093l-9.935,9.935V897.094Z"/><path class="c" d="M935.264,877.832a25.6,25.6,0,0,0,25.6,25.6v-.005a25.583,25.583,0,0,0-25.586-25.591Z"/><path class="c" d="M993.6,877.861a25.6,25.6,0,0,0-25.6,25.6h.006A25.583,25.583,0,0,0,993.6,877.87Z"/><path class="c" d="M993.6,936.289a25.6,25.6,0,0,0-25.6-25.6v.006a25.583,25.583,0,0,0,25.587,25.59Z"/><path class="c" d="M935.264,936.261a25.6,25.6,0,0,0,25.6-25.6h-.006a25.583,25.583,0,0,0-25.59,25.587Z"/></g></g><g transform="translate(-250.705 -877.332)"><g transform="translate(5)"><path class="c" d="M964.373,887.8l-9.935-9.935h19.934Z"/><path class="c" d="M964.437,926.326l9.935,9.935H954.438Z"/><path class="c" d="M983.67,907.029l9.935-9.935v19.934Z"/><path class="c" d="M945.14,907.093l-9.935,9.935V897.094Z"/><path class="c" d="M935.264,877.832a25.6,25.6,0,0,0,25.6,25.6v-.005a25.583,25.583,0,0,0-25.586-25.591Z"/><path class="c" d="M993.6,877.861a25.6,25.6,0,0,0-25.6,25.6h.006A25.583,25.583,0,0,0,993.6,877.87Z"/><path class="c" d="M993.6,936.289a25.6,25.6,0,0,0-25.6-25.6v.006a25.583,25.583,0,0,0,25.587,25.59Z"/><path class="c" d="M935.264,936.261a25.6,25.6,0,0,0,25.6-25.6h-.006a25.583,25.583,0,0,0-25.59,25.587Z"/></g></g><g transform="translate(-174.705 -877.332)"><g transform="translate(5)"><path class="c" d="M964.373,887.8l-9.935-9.935h19.934Z"/><path class="c" d="M964.437,926.326l9.935,9.935H954.438Z"/><path class="c" d="M983.67,907.029l9.935-9.935v19.934Z"/><path class="c" d="M945.14,907.093l-9.935,9.935V897.094Z"/><path class="c" d="M935.264,877.832a25.6,25.6,0,0,0,25.6,25.6v-.005a25.583,25.583,0,0,0-25.586-25.591Z"/><path class="c" d="M993.6,877.861a25.6,25.6,0,0,0-25.6,25.6h.006A25.583,25.583,0,0,0,993.6,877.87Z"/><path class="c" d="M993.6,936.289a25.6,25.6,0,0,0-25.6-25.6v.006a25.583,25.583,0,0,0,25.587,25.59Z"/><path class="c" d="M935.264,936.261a25.6,25.6,0,0,0,25.6-25.6h-.006a25.583,25.583,0,0,0-25.59,25.587Z"/></g></g><g transform="translate(-98.705 -877.332)"><g transform="translate(5)"><path class="c" d="M964.373,887.8l-9.935-9.935h19.934Z"/><path class="c" d="M964.437,926.326l9.935,9.935H954.438Z"/><path class="c" d="M983.67,907.029l9.935-9.935v19.934Z"/><path class="c" d="M945.14,907.093l-9.935,9.935V897.094Z"/><path class="c" d="M935.264,877.832a25.6,25.6,0,0,0,25.6,25.6v-.005a25.583,25.583,0,0,0-25.586-25.591Z"/><path class="c" d="M993.6,877.861a25.6,25.6,0,0,0-25.6,25.6h.006A25.583,25.583,0,0,0,993.6,877.87Z"/><path class="c" d="M993.6,936.289a25.6,25.6,0,0,0-25.6-25.6v.006a25.583,25.583,0,0,0,25.587,25.59Z"/><path class="c" d="M935.264,936.261a25.6,25.6,0,0,0,25.6-25.6h-.006a25.583,25.583,0,0,0-25.59,25.587Z"/></g></g><g transform="translate(-22.705 -877.332)"><g transform="translate(5)"><path class="c" d="M964.373,887.8l-9.935-9.935h19.934Z"/><path class="c" d="M964.437,926.326l9.935,9.935H954.438Z"/><path class="c" d="M983.67,907.029l9.935-9.935v19.934Z"/><path class="c" d="M945.14,907.093l-9.935,9.935V897.094Z"/><path class="c" d="M935.264,877.832a25.6,25.6,0,0,0,25.6,25.6v-.005a25.583,25.583,0,0,0-25.586-25.591Z"/><path class="c" d="M993.6,877.861a25.6,25.6,0,0,0-25.6,25.6h.006A25.583,25.583,0,0,0,993.6,877.87Z"/><path class="c" d="M993.6,936.289a25.6,25.6,0,0,0-25.6-25.6v.006a25.583,25.583,0,0,0,25.587,25.59Z"/><path class="c" d="M935.264,936.261a25.6,25.6,0,0,0,25.6-25.6h-.006a25.583,25.583,0,0,0-25.59,25.587Z"/></g></g><g transform="translate(53.295 -877.332)"><g transform="translate(5)"><path class="c" d="M964.373,887.8l-9.935-9.935h19.934Z"/><path class="c" d="M964.437,926.326l9.935,9.935H954.438Z"/><path class="c" d="M983.67,907.029l9.935-9.935v19.934Z"/><path class="c" d="M945.14,907.093l-9.935,9.935V897.094Z"/><path class="c" d="M935.264,877.832a25.6,25.6,0,0,0,25.6,25.6v-.005a25.583,25.583,0,0,0-25.586-25.591Z"/><path class="c" d="M993.6,877.861a25.6,25.6,0,0,0-25.6,25.6h.006A25.583,25.583,0,0,0,993.6,877.87Z"/><path class="c" d="M993.6,936.289a25.6,25.6,0,0,0-25.6-25.6v.006a25.583,25.583,0,0,0,25.587,25.59Z"/><path class="c" d="M935.264,936.261a25.6,25.6,0,0,0,25.6-25.6h-.006a25.583,25.583,0,0,0-25.59,25.587Z"/></g></g><g transform="translate(129.295 -877.332)"><g transform="translate(5)"><path class="c" d="M964.373,887.8l-9.935-9.935h19.934Z"/><path class="c" d="M964.437,926.326l9.935,9.935H954.438Z"/><path class="c" d="M983.67,907.029l9.935-9.935v19.934Z"/><path class="c" d="M945.14,907.093l-9.935,9.935V897.094Z"/><path class="c" d="M935.264,877.832a25.6,25.6,0,0,0,25.6,25.6v-.005a25.583,25.583,0,0,0-25.586-25.591Z"/><path class="c" d="M993.6,877.861a25.6,25.6,0,0,0-25.6,25.6h.006A25.583,25.583,0,0,0,993.6,877.87Z"/><path class="c" d="M993.6,936.289a25.6,25.6,0,0,0-25.6-25.6v.006a25.583,25.583,0,0,0,25.587,25.59Z"/><path class="c" d="M935.264,936.261a25.6,25.6,0,0,0,25.6-25.6h-.006a25.583,25.583,0,0,0-25.59,25.587Z"/></g></g><g transform="translate(205.295 -877.332)"><g transform="translate(5)"><path class="c" d="M964.373,887.8l-9.935-9.935h19.934Z"/><path class="c" d="M964.437,926.326l9.935,9.935H954.438Z"/><path class="c" d="M983.67,907.029l9.935-9.935v19.934Z"/><path class="c" d="M945.14,907.093l-9.935,9.935V897.094Z"/><path class="c" d="M935.264,877.832a25.6,25.6,0,0,0,25.6,25.6v-.005a25.583,25.583,0,0,0-25.586-25.591Z"/><path class="c" d="M993.6,877.861a25.6,25.6,0,0,0-25.6,25.6h.006A25.583,25.583,0,0,0,993.6,877.87Z"/><path class="c" d="M993.6,936.289a25.6,25.6,0,0,0-25.6-25.6v.006a25.583,25.583,0,0,0,25.587,25.59Z"/><path class="c" d="M935.264,936.261a25.6,25.6,0,0,0,25.6-25.6h-.006a25.583,25.583,0,0,0-25.59,25.587Z"/></g></g><g transform="translate(281.295 -877.332)"><g transform="translate(5)"><path class="c" d="M964.373,887.8l-9.935-9.935h19.934Z"/><path class="c" d="M964.437,926.326l9.935,9.935H954.438Z"/><path class="c" d="M983.67,907.029l9.935-9.935v19.934Z"/><path class="c" d="M945.14,907.093l-9.935,9.935V897.094Z"/><path class="c" d="M935.264,877.832a25.6,25.6,0,0,0,25.6,25.6v-.005a25.583,25.583,0,0,0-25.586-25.591Z"/><path class="c" d="M993.6,877.861a25.6,25.6,0,0,0-25.6,25.6h.006A25.583,25.583,0,0,0,993.6,877.87Z"/><path class="c" d="M993.6,936.289a25.6,25.6,0,0,0-25.6-25.6v.006a25.583,25.583,0,0,0,25.587,25.59Z"/><path class="c" d="M935.264,936.261a25.6,25.6,0,0,0,25.6-25.6h-.006a25.583,25.583,0,0,0-25.59,25.587Z"/></g></g><g transform="translate(357.295 -877.332)"><g transform="translate(5)"><path class="c" d="M964.373,887.8l-9.935-9.935h19.934Z"/><path class="c" d="M964.437,926.326l9.935,9.935H954.438Z"/><path class="c" d="M983.67,907.029l9.935-9.935v19.934Z"/><path class="c" d="M945.14,907.093l-9.935,9.935V897.094Z"/><path class="c" d="M935.264,877.832a25.6,25.6,0,0,0,25.6,25.6v-.005a25.583,25.583,0,0,0-25.586-25.591Z"/><path class="c" d="M993.6,877.861a25.6,25.6,0,0,0-25.6,25.6h.006A25.583,25.583,0,0,0,993.6,877.87Z"/><path class="c" d="M993.6,936.289a25.6,25.6,0,0,0-25.6-25.6v.006a25.583,25.583,0,0,0,25.587,25.59Z"/><path class="c" d="M935.264,936.261a25.6,25.6,0,0,0,25.6-25.6h-.006a25.583,25.583,0,0,0-25.59,25.587Z"/></g></g><g transform="translate(433.295 -877.332)"><g transform="translate(5)"><path class="c" d="M964.373,887.8l-9.935-9.935h19.934Z"/><path class="c" d="M964.437,926.326l9.935,9.935H954.438Z"/><path class="c" d="M983.67,907.029l9.935-9.935v19.934Z"/><path class="c" d="M945.14,907.093l-9.935,9.935V897.094Z"/><path class="c" d="M935.264,877.832a25.6,25.6,0,0,0,25.6,25.6v-.005a25.583,25.583,0,0,0-25.586-25.591Z"/><path class="c" d="M993.6,877.861a25.6,25.6,0,0,0-25.6,25.6h.006A25.583,25.583,0,0,0,993.6,877.87Z"/><path class="c" d="M993.6,936.289a25.6,25.6,0,0,0-25.6-25.6v.006a25.583,25.583,0,0,0,25.587,25.59Z"/><path class="c" d="M935.264,936.261a25.6,25.6,0,0,0,25.6-25.6h-.006a25.583,25.583,0,0,0-25.59,25.587Z"/></g></g><g transform="translate(-934.705 -801.332)"><g transform="translate(5)"><path class="c" d="M964.373,887.8l-9.935-9.935h19.934Z"/><path class="c" d="M964.437,926.326l9.935,9.935H954.438Z"/><path class="c" d="M983.67,907.029l9.935-9.935v19.934Z"/><path class="c" d="M945.14,907.093l-9.935,9.935V897.094Z"/><path class="c" d="M935.264,877.832a25.6,25.6,0,0,0,25.6,25.6v-.005a25.583,25.583,0,0,0-25.586-25.591Z"/><path class="c" d="M993.6,877.861a25.6,25.6,0,0,0-25.6,25.6h.006A25.583,25.583,0,0,0,993.6,877.87Z"/><path class="c" d="M993.6,936.289a25.6,25.6,0,0,0-25.6-25.6v.006a25.583,25.583,0,0,0,25.587,25.59Z"/><path class="c" d="M935.264,936.261a25.6,25.6,0,0,0,25.6-25.6h-.006a25.583,25.583,0,0,0-25.59,25.587Z"/></g></g><g transform="translate(-858.705 -801.332)"><g transform="translate(5)"><path class="c" d="M964.373,887.8l-9.935-9.935h19.934Z"/><path class="c" d="M964.437,926.326l9.935,9.935H954.438Z"/><path class="c" d="M983.67,907.029l9.935-9.935v19.934Z"/><path class="c" d="M945.14,907.093l-9.935,9.935V897.094Z"/><path class="c" d="M935.264,877.832a25.6,25.6,0,0,0,25.6,25.6v-.005a25.583,25.583,0,0,0-25.586-25.591Z"/><path class="c" d="M993.6,877.861a25.6,25.6,0,0,0-25.6,25.6h.006A25.583,25.583,0,0,0,993.6,877.87Z"/><path class="c" d="M993.6,936.289a25.6,25.6,0,0,0-25.6-25.6v.006a25.583,25.583,0,0,0,25.587,25.59Z"/><path class="c" d="M935.264,936.261a25.6,25.6,0,0,0,25.6-25.6h-.006a25.583,25.583,0,0,0-25.59,25.587Z"/></g></g><g transform="translate(-782.705 -801.332)"><g transform="translate(5)"><path class="c" d="M964.373,887.8l-9.935-9.935h19.934Z"/><path class="c" d="M964.437,926.326l9.935,9.935H954.438Z"/><path class="c" d="M983.67,907.029l9.935-9.935v19.934Z"/><path class="c" d="M945.14,907.093l-9.935,9.935V897.094Z"/><path class="c" d="M935.264,877.832a25.6,25.6,0,0,0,25.6,25.6v-.005a25.583,25.583,0,0,0-25.586-25.591Z"/><path class="c" d="M993.6,877.861a25.6,25.6,0,0,0-25.6,25.6h.006A25.583,25.583,0,0,0,993.6,877.87Z"/><path class="c" d="M993.6,936.289a25.6,25.6,0,0,0-25.6-25.6v.006a25.583,25.583,0,0,0,25.587,25.59Z"/><path class="c" d="M935.264,936.261a25.6,25.6,0,0,0,25.6-25.6h-.006a25.583,25.583,0,0,0-25.59,25.587Z"/></g></g><g transform="translate(-706.705 -801.332)"><g transform="translate(5)"><path class="c" d="M964.373,887.8l-9.935-9.935h19.934Z"/><path class="c" d="M964.437,926.326l9.935,9.935H954.438Z"/><path class="c" d="M983.67,907.029l9.935-9.935v19.934Z"/><path class="c" d="M945.14,907.093l-9.935,9.935V897.094Z"/><path class="c" d="M935.264,877.832a25.6,25.6,0,0,0,25.6,25.6v-.005a25.583,25.583,0,0,0-25.586-25.591Z"/><path class="c" d="M993.6,877.861a25.6,25.6,0,0,0-25.6,25.6h.006A25.583,25.583,0,0,0,993.6,877.87Z"/><path class="c" d="M993.6,936.289a25.6,25.6,0,0,0-25.6-25.6v.006a25.583,25.583,0,0,0,25.587,25.59Z"/><path class="c" d="M935.264,936.261a25.6,25.6,0,0,0,25.6-25.6h-.006a25.583,25.583,0,0,0-25.59,25.587Z"/></g></g><g transform="translate(-630.705 -801.332)"><g transform="translate(5)"><path class="c" d="M964.373,887.8l-9.935-9.935h19.934Z"/><path class="c" d="M964.437,926.326l9.935,9.935H954.438Z"/><path class="c" d="M983.67,907.029l9.935-9.935v19.934Z"/><path class="c" d="M945.14,907.093l-9.935,9.935V897.094Z"/><path class="c" d="M935.264,877.832a25.6,25.6,0,0,0,25.6,25.6v-.005a25.583,25.583,0,0,0-25.586-25.591Z"/><path class="c" d="M993.6,877.861a25.6,25.6,0,0,0-25.6,25.6h.006A25.583,25.583,0,0,0,993.6,877.87Z"/><path class="c" d="M993.6,936.289a25.6,25.6,0,0,0-25.6-25.6v.006a25.583,25.583,0,0,0,25.587,25.59Z"/><path class="c" d="M935.264,936.261a25.6,25.6,0,0,0,25.6-25.6h-.006a25.583,25.583,0,0,0-25.59,25.587Z"/></g></g><g transform="translate(-554.705 -801.332)"><g transform="translate(5)"><path class="c" d="M964.373,887.8l-9.935-9.935h19.934Z"/><path class="c" d="M964.437,926.326l9.935,9.935H954.438Z"/><path class="c" d="M983.67,907.029l9.935-9.935v19.934Z"/><path class="c" d="M945.14,907.093l-9.935,9.935V897.094Z"/><path class="c" d="M935.264,877.832a25.6,25.6,0,0,0,25.6,25.6v-.005a25.583,25.583,0,0,0-25.586-25.591Z"/><path class="c" d="M993.6,877.861a25.6,25.6,0,0,0-25.6,25.6h.006A25.583,25.583,0,0,0,993.6,877.87Z"/><path class="c" d="M993.6,936.289a25.6,25.6,0,0,0-25.6-25.6v.006a25.583,25.583,0,0,0,25.587,25.59Z"/><path class="c" d="M935.264,936.261a25.6,25.6,0,0,0,25.6-25.6h-.006a25.583,25.583,0,0,0-25.59,25.587Z"/></g></g><g transform="translate(-478.705 -801.332)"><g transform="translate(5)"><path class="c" d="M964.373,887.8l-9.935-9.935h19.934Z"/><path class="c" d="M964.437,926.326l9.935,9.935H954.438Z"/><path class="c" d="M983.67,907.029l9.935-9.935v19.934Z"/><path class="c" d="M945.14,907.093l-9.935,9.935V897.094Z"/><path class="c" d="M935.264,877.832a25.6,25.6,0,0,0,25.6,25.6v-.005a25.583,25.583,0,0,0-25.586-25.591Z"/><path class="c" d="M993.6,877.861a25.6,25.6,0,0,0-25.6,25.6h.006A25.583,25.583,0,0,0,993.6,877.87Z"/><path class="c" d="M993.6,936.289a25.6,25.6,0,0,0-25.6-25.6v.006a25.583,25.583,0,0,0,25.587,25.59Z"/><path class="c" d="M935.264,936.261a25.6,25.6,0,0,0,25.6-25.6h-.006a25.583,25.583,0,0,0-25.59,25.587Z"/></g></g><g transform="translate(-402.705 -801.332)"><g transform="translate(5)"><path class="c" d="M964.373,887.8l-9.935-9.935h19.934Z"/><path class="c" d="M964.437,926.326l9.935,9.935H954.438Z"/><path class="c" d="M983.67,907.029l9.935-9.935v19.934Z"/><path class="c" d="M945.14,907.093l-9.935,9.935V897.094Z"/><path class="c" d="M935.264,877.832a25.6,25.6,0,0,0,25.6,25.6v-.005a25.583,25.583,0,0,0-25.586-25.591Z"/><path class="c" d="M993.6,877.861a25.6,25.6,0,0,0-25.6,25.6h.006A25.583,25.583,0,0,0,993.6,877.87Z"/><path class="c" d="M993.6,936.289a25.6,25.6,0,0,0-25.6-25.6v.006a25.583,25.583,0,0,0,25.587,25.59Z"/><path class="c" d="M935.264,936.261a25.6,25.6,0,0,0,25.6-25.6h-.006a25.583,25.583,0,0,0-25.59,25.587Z"/></g></g><g transform="translate(-326.705 -801.332)"><g transform="translate(5)"><path class="c" d="M964.373,887.8l-9.935-9.935h19.934Z"/><path class="c" d="M964.437,926.326l9.935,9.935H954.438Z"/><path class="c" d="M983.67,907.029l9.935-9.935v19.934Z"/><path class="c" d="M945.14,907.093l-9.935,9.935V897.094Z"/><path class="c" d="M935.264,877.832a25.6,25.6,0,0,0,25.6,25.6v-.005a25.583,25.583,0,0,0-25.586-25.591Z"/><path class="c" d="M993.6,877.861a25.6,25.6,0,0,0-25.6,25.6h.006A25.583,25.583,0,0,0,993.6,877.87Z"/><path class="c" d="M993.6,936.289a25.6,25.6,0,0,0-25.6-25.6v.006a25.583,25.583,0,0,0,25.587,25.59Z"/><path class="c" d="M935.264,936.261a25.6,25.6,0,0,0,25.6-25.6h-.006a25.583,25.583,0,0,0-25.59,25.587Z"/></g></g><g transform="translate(-250.705 -801.332)"><g transform="translate(5)"><path class="c" d="M964.373,887.8l-9.935-9.935h19.934Z"/><path class="c" d="M964.437,926.326l9.935,9.935H954.438Z"/><path class="c" d="M983.67,907.029l9.935-9.935v19.934Z"/><path class="c" d="M945.14,907.093l-9.935,9.935V897.094Z"/><path class="c" d="M935.264,877.832a25.6,25.6,0,0,0,25.6,25.6v-.005a25.583,25.583,0,0,0-25.586-25.591Z"/><path class="c" d="M993.6,877.861a25.6,25.6,0,0,0-25.6,25.6h.006A25.583,25.583,0,0,0,993.6,877.87Z"/><path class="c" d="M993.6,936.289a25.6,25.6,0,0,0-25.6-25.6v.006a25.583,25.583,0,0,0,25.587,25.59Z"/><path class="c" d="M935.264,936.261a25.6,25.6,0,0,0,25.6-25.6h-.006a25.583,25.583,0,0,0-25.59,25.587Z"/></g></g><g transform="translate(-174.705 -801.332)"><g transform="translate(5)"><path class="c" d="M964.373,887.8l-9.935-9.935h19.934Z"/><path class="c" d="M964.437,926.326l9.935,9.935H954.438Z"/><path class="c" d="M983.67,907.029l9.935-9.935v19.934Z"/><path class="c" d="M945.14,907.093l-9.935,9.935V897.094Z"/><path class="c" d="M935.264,877.832a25.6,25.6,0,0,0,25.6,25.6v-.005a25.583,25.583,0,0,0-25.586-25.591Z"/><path class="c" d="M993.6,877.861a25.6,25.6,0,0,0-25.6,25.6h.006A25.583,25.583,0,0,0,993.6,877.87Z"/><path class="c" d="M993.6,936.289a25.6,25.6,0,0,0-25.6-25.6v.006a25.583,25.583,0,0,0,25.587,25.59Z"/><path class="c" d="M935.264,936.261a25.6,25.6,0,0,0,25.6-25.6h-.006a25.583,25.583,0,0,0-25.59,25.587Z"/></g></g><g transform="translate(-98.705 -801.332)"><g transform="translate(5)"><path class="c" d="M964.373,887.8l-9.935-9.935h19.934Z"/><path class="c" d="M964.437,926.326l9.935,9.935H954.438Z"/><path class="c" d="M983.67,907.029l9.935-9.935v19.934Z"/><path class="c" d="M945.14,907.093l-9.935,9.935V897.094Z"/><path class="c" d="M935.264,877.832a25.6,25.6,0,0,0,25.6,25.6v-.005a25.583,25.583,0,0,0-25.586-25.591Z"/><path class="c" d="M993.6,877.861a25.6,25.6,0,0,0-25.6,25.6h.006A25.583,25.583,0,0,0,993.6,877.87Z"/><path class="c" d="M993.6,936.289a25.6,25.6,0,0,0-25.6-25.6v.006a25.583,25.583,0,0,0,25.587,25.59Z"/><path class="c" d="M935.264,936.261a25.6,25.6,0,0,0,25.6-25.6h-.006a25.583,25.583,0,0,0-25.59,25.587Z"/></g></g><g transform="translate(-22.705 -801.332)"><g transform="translate(5)"><path class="c" d="M964.373,887.8l-9.935-9.935h19.934Z"/><path class="c" d="M964.437,926.326l9.935,9.935H954.438Z"/><path class="c" d="M983.67,907.029l9.935-9.935v19.934Z"/><path class="c" d="M945.14,907.093l-9.935,9.935V897.094Z"/><path class="c" d="M935.264,877.832a25.6,25.6,0,0,0,25.6,25.6v-.005a25.583,25.583,0,0,0-25.586-25.591Z"/><path class="c" d="M993.6,877.861a25.6,25.6,0,0,0-25.6,25.6h.006A25.583,25.583,0,0,0,993.6,877.87Z"/><path class="c" d="M993.6,936.289a25.6,25.6,0,0,0-25.6-25.6v.006a25.583,25.583,0,0,0,25.587,25.59Z"/><path class="c" d="M935.264,936.261a25.6,25.6,0,0,0,25.6-25.6h-.006a25.583,25.583,0,0,0-25.59,25.587Z"/></g></g><g transform="translate(53.295 -801.332)"><g transform="translate(5)"><path class="c" d="M964.373,887.8l-9.935-9.935h19.934Z"/><path class="c" d="M964.437,926.326l9.935,9.935H954.438Z"/><path class="c" d="M983.67,907.029l9.935-9.935v19.934Z"/><path class="c" d="M945.14,907.093l-9.935,9.935V897.094Z"/><path class="c" d="M935.264,877.832a25.6,25.6,0,0,0,25.6,25.6v-.005a25.583,25.583,0,0,0-25.586-25.591Z"/><path class="c" d="M993.6,877.861a25.6,25.6,0,0,0-25.6,25.6h.006A25.583,25.583,0,0,0,993.6,877.87Z"/><path class="c" d="M993.6,936.289a25.6,25.6,0,0,0-25.6-25.6v.006a25.583,25.583,0,0,0,25.587,25.59Z"/><path class="c" d="M935.264,936.261a25.6,25.6,0,0,0,25.6-25.6h-.006a25.583,25.583,0,0,0-25.59,25.587Z"/></g></g><g transform="translate(129.295 -801.332)"><g transform="translate(5)"><path class="c" d="M964.373,887.8l-9.935-9.935h19.934Z"/><path class="c" d="M964.437,926.326l9.935,9.935H954.438Z"/><path class="c" d="M983.67,907.029l9.935-9.935v19.934Z"/><path class="c" d="M945.14,907.093l-9.935,9.935V897.094Z"/><path class="c" d="M935.264,877.832a25.6,25.6,0,0,0,25.6,25.6v-.005a25.583,25.583,0,0,0-25.586-25.591Z"/><path class="c" d="M993.6,877.861a25.6,25.6,0,0,0-25.6,25.6h.006A25.583,25.583,0,0,0,993.6,877.87Z"/><path class="c" d="M993.6,936.289a25.6,25.6,0,0,0-25.6-25.6v.006a25.583,25.583,0,0,0,25.587,25.59Z"/><path class="c" d="M935.264,936.261a25.6,25.6,0,0,0,25.6-25.6h-.006a25.583,25.583,0,0,0-25.59,25.587Z"/></g></g><g transform="translate(205.295 -801.332)"><g transform="translate(5)"><path class="c" d="M964.373,887.8l-9.935-9.935h19.934Z"/><path class="c" d="M964.437,926.326l9.935,9.935H954.438Z"/><path class="c" d="M983.67,907.029l9.935-9.935v19.934Z"/><path class="c" d="M945.14,907.093l-9.935,9.935V897.094Z"/><path class="c" d="M935.264,877.832a25.6,25.6,0,0,0,25.6,25.6v-.005a25.583,25.583,0,0,0-25.586-25.591Z"/><path class="c" d="M993.6,877.861a25.6,25.6,0,0,0-25.6,25.6h.006A25.583,25.583,0,0,0,993.6,877.87Z"/><path class="c" d="M993.6,936.289a25.6,25.6,0,0,0-25.6-25.6v.006a25.583,25.583,0,0,0,25.587,25.59Z"/><path class="c" d="M935.264,936.261a25.6,25.6,0,0,0,25.6-25.6h-.006a25.583,25.583,0,0,0-25.59,25.587Z"/></g></g><g transform="translate(281.295 -801.332)"><g transform="translate(5)"><path class="c" d="M964.373,887.8l-9.935-9.935h19.934Z"/><path class="c" d="M964.437,926.326l9.935,9.935H954.438Z"/><path class="c" d="M983.67,907.029l9.935-9.935v19.934Z"/><path class="c" d="M945.14,907.093l-9.935,9.935V897.094Z"/><path class="c" d="M935.264,877.832a25.6,25.6,0,0,0,25.6,25.6v-.005a25.583,25.583,0,0,0-25.586-25.591Z"/><path class="c" d="M993.6,877.861a25.6,25.6,0,0,0-25.6,25.6h.006A25.583,25.583,0,0,0,993.6,877.87Z"/><path class="c" d="M993.6,936.289a25.6,25.6,0,0,0-25.6-25.6v.006a25.583,25.583,0,0,0,25.587,25.59Z"/><path class="c" d="M935.264,936.261a25.6,25.6,0,0,0,25.6-25.6h-.006a25.583,25.583,0,0,0-25.59,25.587Z"/></g></g><g transform="translate(357.295 -801.332)"><g transform="translate(5)"><path class="c" d="M964.373,887.8l-9.935-9.935h19.934Z"/><path class="c" d="M964.437,926.326l9.935,9.935H954.438Z"/><path class="c" d="M983.67,907.029l9.935-9.935v19.934Z"/><path class="c" d="M945.14,907.093l-9.935,9.935V897.094Z"/><path class="c" d="M935.264,877.832a25.6,25.6,0,0,0,25.6,25.6v-.005a25.583,25.583,0,0,0-25.586-25.591Z"/><path class="c" d="M993.6,877.861a25.6,25.6,0,0,0-25.6,25.6h.006A25.583,25.583,0,0,0,993.6,877.87Z"/><path class="c" d="M993.6,936.289a25.6,25.6,0,0,0-25.6-25.6v.006a25.583,25.583,0,0,0,25.587,25.59Z"/><path class="c" d="M935.264,936.261a25.6,25.6,0,0,0,25.6-25.6h-.006a25.583,25.583,0,0,0-25.59,25.587Z"/></g></g><g transform="translate(433.295 -801.332)"><g transform="translate(5)"><path class="c" d="M964.373,887.8l-9.935-9.935h19.934Z"/><path class="c" d="M964.437,926.326l9.935,9.935H954.438Z"/><path class="c" d="M983.67,907.029l9.935-9.935v19.934Z"/><path class="c" d="M945.14,907.093l-9.935,9.935V897.094Z"/><path class="c" d="M935.264,877.832a25.6,25.6,0,0,0,25.6,25.6v-.005a25.583,25.583,0,0,0-25.586-25.591Z"/><path class="c" d="M993.6,877.861a25.6,25.6,0,0,0-25.6,25.6h.006A25.583,25.583,0,0,0,993.6,877.87Z"/><path class="c" d="M993.6,936.289a25.6,25.6,0,0,0-25.6-25.6v.006a25.583,25.583,0,0,0,25.587,25.59Z"/><path class="c" d="M935.264,936.261a25.6,25.6,0,0,0,25.6-25.6h-.006a25.583,25.583,0,0,0-25.59,25.587Z"/></g></g></g></svg>