<svg xmlns="http://www.w3.org/2000/svg" width="676.755" height="434.206" viewBox="0 0 676.755 434.206"><defs><style>.a,.d,.f{fill:none;}.a,.b{stroke:#0096a4;}.b{fill:#f5fbff;}.c{fill:#db9745;}.d{stroke:#f5fbff;stroke-dasharray:5 5;}.e{stroke:none;}</style></defs><g transform="translate(-581.826 -1983.574)"><g transform="translate(701.333 1983.574)"><g transform="translate(41.854 167.406)"><g class="a" transform="translate(0 0)"><ellipse class="e" cx="7.847" cy="7.847" rx="7.847" ry="7.847"/><ellipse class="f" cx="7.847" cy="7.847" rx="7.347" ry="7.347"/></g><g class="a" transform="translate(20.926 20.926)"><ellipse class="e" cx="7.847" cy="7.847" rx="7.847" ry="7.847"/><ellipse class="f" cx="7.847" cy="7.847" rx="7.347" ry="7.347"/></g><g class="a" transform="translate(41.851 20.926)"><ellipse class="e" cx="7.847" cy="7.847" rx="7.847" ry="7.847"/><ellipse class="f" cx="7.847" cy="7.847" rx="7.347" ry="7.347"/></g><g class="a" transform="translate(62.778 20.926)"><ellipse class="e" cx="7.847" cy="7.847" rx="7.847" ry="7.847"/><ellipse class="f" cx="7.847" cy="7.847" rx="7.347" ry="7.347"/></g><g class="a" transform="translate(20.926 41.851)"><ellipse class="e" cx="7.847" cy="7.847" rx="7.847" ry="7.847"/><ellipse class="f" cx="7.847" cy="7.847" rx="7.347" ry="7.347"/></g><g class="a" transform="translate(41.851 41.851)"><ellipse class="e" cx="7.847" cy="7.847" rx="7.847" ry="7.847"/><ellipse class="f" cx="7.847" cy="7.847" rx="7.347" ry="7.347"/></g><g class="b" transform="translate(62.778 41.851)"><ellipse class="e" cx="7.847" cy="7.847" rx="7.847" ry="7.847"/><ellipse class="f" cx="7.847" cy="7.847" rx="7.347" ry="7.347"/></g><g class="a" transform="translate(83.703 41.851)"><ellipse class="e" cx="7.847" cy="7.847" rx="7.847" ry="7.847"/><ellipse class="f" cx="7.847" cy="7.847" rx="7.347" ry="7.347"/></g><g class="a" transform="translate(104.629 41.851)"><ellipse class="e" cx="7.847" cy="7.847" rx="7.847" ry="7.847"/><ellipse class="f" cx="7.847" cy="7.847" rx="7.347" ry="7.347"/></g><g class="a" transform="translate(41.851 62.777)"><ellipse class="e" cx="7.847" cy="7.847" rx="7.847" ry="7.847"/><ellipse class="f" cx="7.847" cy="7.847" rx="7.347" ry="7.347"/></g><g class="a" transform="translate(62.778 62.777)"><ellipse class="e" cx="7.847" cy="7.847" rx="7.847" ry="7.847"/><ellipse class="f" cx="7.847" cy="7.847" rx="7.347" ry="7.347"/></g><g class="a" transform="translate(83.703 62.777)"><ellipse class="e" cx="7.847" cy="7.847" rx="7.847" ry="7.847"/><ellipse class="f" cx="7.847" cy="7.847" rx="7.347" ry="7.347"/></g><g class="a" transform="translate(104.629 62.777)"><ellipse class="e" cx="7.847" cy="7.847" rx="7.847" ry="7.847"/><ellipse class="f" cx="7.847" cy="7.847" rx="7.347" ry="7.347"/></g><g class="a" transform="translate(125.554 62.777)"><ellipse class="e" cx="7.847" cy="7.847" rx="7.847" ry="7.847"/><ellipse class="f" cx="7.847" cy="7.847" rx="7.347" ry="7.347"/></g><g class="a" transform="translate(146.48 62.777)"><ellipse class="e" cx="7.847" cy="7.847" rx="7.847" ry="7.847"/><ellipse class="f" cx="7.847" cy="7.847" rx="7.347" ry="7.347"/></g><g class="a" transform="translate(167.406 62.777)"><ellipse class="e" cx="7.847" cy="7.847" rx="7.847" ry="7.847"/><ellipse class="f" cx="7.847" cy="7.847" rx="7.347" ry="7.347"/></g><g class="a" transform="translate(62.778 83.702)"><ellipse class="e" cx="7.847" cy="7.847" rx="7.847" ry="7.847"/><ellipse class="f" cx="7.847" cy="7.847" rx="7.347" ry="7.347"/></g><g class="a" transform="translate(83.703 83.702)"><ellipse class="e" cx="7.847" cy="7.847" rx="7.847" ry="7.847"/><ellipse class="f" cx="7.847" cy="7.847" rx="7.347" ry="7.347"/></g><g class="a" transform="translate(104.629 83.702)"><ellipse class="e" cx="7.847" cy="7.847" rx="7.847" ry="7.847"/><ellipse class="f" cx="7.847" cy="7.847" rx="7.347" ry="7.347"/></g><g class="a" transform="translate(125.554 83.702)"><ellipse class="e" cx="7.847" cy="7.847" rx="7.847" ry="7.847"/><ellipse class="f" cx="7.847" cy="7.847" rx="7.347" ry="7.347"/></g><g class="a" transform="translate(146.48 83.702)"><ellipse class="e" cx="7.847" cy="7.847" rx="7.847" ry="7.847"/><ellipse class="f" cx="7.847" cy="7.847" rx="7.347" ry="7.347"/></g><g class="a" transform="translate(167.406 83.702)"><ellipse class="e" cx="7.847" cy="7.847" rx="7.847" ry="7.847"/><ellipse class="f" cx="7.847" cy="7.847" rx="7.347" ry="7.347"/></g><g class="a" transform="translate(188.331 83.702)"><ellipse class="e" cx="7.847" cy="7.847" rx="7.847" ry="7.847"/><ellipse class="f" cx="7.847" cy="7.847" rx="7.347" ry="7.347"/></g><g class="a" transform="translate(209.257 83.702)"><ellipse class="e" cx="7.847" cy="7.847" rx="7.847" ry="7.847"/><ellipse class="f" cx="7.847" cy="7.847" rx="7.347" ry="7.347"/></g><g class="a" transform="translate(83.703 104.628)"><ellipse class="e" cx="7.847" cy="7.847" rx="7.847" ry="7.847"/><ellipse class="f" cx="7.847" cy="7.847" rx="7.347" ry="7.347"/></g><g class="b" transform="translate(62.776 104.628)"><ellipse class="e" cx="7.847" cy="7.847" rx="7.847" ry="7.847"/><ellipse class="f" cx="7.847" cy="7.847" rx="7.347" ry="7.347"/></g><g class="a" transform="translate(83.703 125.554)"><ellipse class="e" cx="7.847" cy="7.847" rx="7.847" ry="7.847"/><ellipse class="f" cx="7.847" cy="7.847" rx="7.347" ry="7.347"/></g><g class="a" transform="translate(62.776 125.554)"><ellipse class="e" cx="7.847" cy="7.847" rx="7.847" ry="7.847"/><ellipse class="f" cx="7.847" cy="7.847" rx="7.347" ry="7.347"/></g><g class="a" transform="translate(104.629 104.628)"><ellipse class="e" cx="7.847" cy="7.847" rx="7.847" ry="7.847"/><ellipse class="f" cx="7.847" cy="7.847" rx="7.347" ry="7.347"/></g><g class="a" transform="translate(104.629 125.554)"><ellipse class="e" cx="7.847" cy="7.847" rx="7.847" ry="7.847"/><ellipse class="f" cx="7.847" cy="7.847" rx="7.347" ry="7.347"/></g><g class="a" transform="translate(125.554 104.628)"><ellipse class="e" cx="7.847" cy="7.847" rx="7.847" ry="7.847"/><ellipse class="f" cx="7.847" cy="7.847" rx="7.347" ry="7.347"/></g><g class="a" transform="translate(125.554 125.554)"><ellipse class="e" cx="7.847" cy="7.847" rx="7.847" ry="7.847"/><ellipse class="f" cx="7.847" cy="7.847" rx="7.347" ry="7.347"/></g><g class="a" transform="translate(146.48 104.628)"><ellipse class="e" cx="7.847" cy="7.847" rx="7.847" ry="7.847"/><ellipse class="f" cx="7.847" cy="7.847" rx="7.347" ry="7.347"/></g><g class="a" transform="translate(146.48 125.554)"><ellipse class="e" cx="7.847" cy="7.847" rx="7.847" ry="7.847"/><ellipse class="f" cx="7.847" cy="7.847" rx="7.347" ry="7.347"/></g><g class="a" transform="translate(167.406 104.628)"><ellipse class="e" cx="7.847" cy="7.847" rx="7.847" ry="7.847"/><ellipse class="f" cx="7.847" cy="7.847" rx="7.347" ry="7.347"/></g><g class="a" transform="translate(188.331 104.628)"><ellipse class="e" cx="7.847" cy="7.847" rx="7.847" ry="7.847"/><ellipse class="f" cx="7.847" cy="7.847" rx="7.347" ry="7.347"/></g><g class="a" transform="translate(209.257 104.628)"><ellipse class="e" cx="7.847" cy="7.847" rx="7.847" ry="7.847"/><ellipse class="f" cx="7.847" cy="7.847" rx="7.347" ry="7.347"/></g><g class="a" transform="translate(230.183 104.628)"><ellipse class="e" cx="7.847" cy="7.847" rx="7.847" ry="7.847"/><ellipse class="f" cx="7.847" cy="7.847" rx="7.347" ry="7.347"/></g><g class="a" transform="translate(167.406 125.554)"><ellipse class="e" cx="7.847" cy="7.847" rx="7.847" ry="7.847"/><ellipse class="f" cx="7.847" cy="7.847" rx="7.347" ry="7.347"/></g><g class="a" transform="translate(167.406 146.478)"><ellipse class="e" cx="7.847" cy="7.847" rx="7.847" ry="7.847"/><ellipse class="f" cx="7.847" cy="7.847" rx="7.347" ry="7.347"/></g><g class="a" transform="translate(188.331 125.554)"><ellipse class="e" cx="7.847" cy="7.847" rx="7.847" ry="7.847"/><ellipse class="f" cx="7.847" cy="7.847" rx="7.347" ry="7.347"/></g><g class="a" transform="translate(188.331 146.478)"><ellipse class="e" cx="7.847" cy="7.847" rx="7.847" ry="7.847"/><ellipse class="f" cx="7.847" cy="7.847" rx="7.347" ry="7.347"/></g><g class="a" transform="translate(209.257 125.554)"><ellipse class="e" cx="7.847" cy="7.847" rx="7.847" ry="7.847"/><ellipse class="f" cx="7.847" cy="7.847" rx="7.347" ry="7.347"/></g><g class="a" transform="translate(209.257 146.478)"><ellipse class="e" cx="7.847" cy="7.847" rx="7.847" ry="7.847"/><ellipse class="f" cx="7.847" cy="7.847" rx="7.347" ry="7.347"/></g><g class="a" transform="translate(230.183 125.554)"><ellipse class="e" cx="7.847" cy="7.847" rx="7.847" ry="7.847"/><ellipse class="f" cx="7.847" cy="7.847" rx="7.347" ry="7.347"/></g><g class="a" transform="translate(251.108 125.554)"><ellipse class="e" cx="7.847" cy="7.847" rx="7.847" ry="7.847"/><ellipse class="f" cx="7.847" cy="7.847" rx="7.347" ry="7.347"/></g><g class="a" transform="translate(251.108 146.48)"><ellipse class="e" cx="7.847" cy="7.847" rx="7.847" ry="7.847"/><ellipse class="f" cx="7.847" cy="7.847" rx="7.347" ry="7.347"/></g><g class="a" transform="translate(230.182 146.48)"><ellipse class="e" cx="7.847" cy="7.847" rx="7.847" ry="7.847"/><ellipse class="f" cx="7.847" cy="7.847" rx="7.347" ry="7.347"/></g><g class="a" transform="translate(272.034 146.48)"><ellipse class="e" cx="7.847" cy="7.847" rx="7.847" ry="7.847"/><ellipse class="f" cx="7.847" cy="7.847" rx="7.347" ry="7.347"/></g><g class="a" transform="translate(292.96 146.48)"><ellipse class="e" cx="7.847" cy="7.847" rx="7.847" ry="7.847"/><ellipse class="f" cx="7.847" cy="7.847" rx="7.347" ry="7.347"/></g><g class="a" transform="translate(292.96 167.405)"><ellipse class="e" cx="7.847" cy="7.847" rx="7.847" ry="7.847"/><ellipse class="f" cx="7.847" cy="7.847" rx="7.347" ry="7.347"/></g><g class="a" transform="translate(272.034 167.405)"><ellipse class="e" cx="7.847" cy="7.847" rx="7.847" ry="7.847"/><ellipse class="f" cx="7.847" cy="7.847" rx="7.347" ry="7.347"/></g><g class="a" transform="translate(251.11 167.405)"><ellipse class="e" cx="7.847" cy="7.847" rx="7.847" ry="7.847"/><ellipse class="f" cx="7.847" cy="7.847" rx="7.347" ry="7.347"/></g><g class="a" transform="translate(230.183 167.405)"><ellipse class="e" cx="7.847" cy="7.847" rx="7.847" ry="7.847"/><ellipse class="f" cx="7.847" cy="7.847" rx="7.347" ry="7.347"/></g><g class="a" transform="translate(292.96 188.329)"><ellipse class="e" cx="7.847" cy="7.847" rx="7.847" ry="7.847"/><ellipse class="f" cx="7.847" cy="7.847" rx="7.347" ry="7.347"/></g><g class="a" transform="translate(272.034 188.329)"><ellipse class="e" cx="7.847" cy="7.847" rx="7.847" ry="7.847"/><ellipse class="f" cx="7.847" cy="7.847" rx="7.347" ry="7.347"/></g><g class="a" transform="translate(272.034 209.254)"><ellipse class="e" cx="7.847" cy="7.847" rx="7.847" ry="7.847"/><ellipse class="f" cx="7.847" cy="7.847" rx="7.347" ry="7.347"/></g><g class="a" transform="translate(251.11 188.329)"><ellipse class="e" cx="7.847" cy="7.847" rx="7.847" ry="7.847"/><ellipse class="f" cx="7.847" cy="7.847" rx="7.347" ry="7.347"/></g><g class="a" transform="translate(272.034 125.554)"><ellipse class="e" cx="7.847" cy="7.847" rx="7.847" ry="7.847"/><ellipse class="f" cx="7.847" cy="7.847" rx="7.347" ry="7.347"/></g></g><g transform="translate(62.779 0)"><g class="a" transform="translate(41.853 0)"><ellipse class="e" cx="7.847" cy="7.847" rx="7.847" ry="7.847"/><ellipse class="f" cx="7.847" cy="7.847" rx="7.347" ry="7.347"/></g><g class="a" transform="translate(20.927 20.926)"><ellipse class="e" cx="7.847" cy="7.847" rx="7.847" ry="7.847"/><ellipse class="f" cx="7.847" cy="7.847" rx="7.347" ry="7.347"/></g><g class="a" transform="translate(20.927 0)"><ellipse class="e" cx="7.847" cy="7.847" rx="7.847" ry="7.847"/><ellipse class="f" cx="7.847" cy="7.847" rx="7.347" ry="7.347"/></g><g class="a" transform="translate(0.001 20.926)"><ellipse class="e" cx="7.847" cy="7.847" rx="7.847" ry="7.847"/><ellipse class="f" cx="7.847" cy="7.847" rx="7.347" ry="7.347"/></g><g class="a" transform="translate(20.927 41.852)"><ellipse class="e" cx="7.847" cy="7.847" rx="7.847" ry="7.847"/><ellipse class="f" cx="7.847" cy="7.847" rx="7.347" ry="7.347"/></g><g class="a" transform="translate(0 41.852)"><ellipse class="e" cx="7.847" cy="7.847" rx="7.847" ry="7.847"/><ellipse class="f" cx="7.847" cy="7.847" rx="7.347" ry="7.347"/></g><g class="a" transform="translate(41.853 20.926)"><ellipse class="e" cx="7.847" cy="7.847" rx="7.847" ry="7.847"/><ellipse class="f" cx="7.847" cy="7.847" rx="7.347" ry="7.347"/></g><g class="a" transform="translate(41.853 41.852)"><ellipse class="e" cx="7.847" cy="7.847" rx="7.847" ry="7.847"/><ellipse class="f" cx="7.847" cy="7.847" rx="7.347" ry="7.347"/></g><g class="a" transform="translate(41.853 62.778)"><ellipse class="e" cx="7.847" cy="7.847" rx="7.847" ry="7.847"/><ellipse class="f" cx="7.847" cy="7.847" rx="7.347" ry="7.347"/></g><g class="a" transform="translate(62.778 20.926)"><ellipse class="e" cx="7.847" cy="7.847" rx="7.847" ry="7.847"/><ellipse class="f" cx="7.847" cy="7.847" rx="7.347" ry="7.347"/></g><g class="a" transform="translate(62.778 0)"><ellipse class="e" cx="7.847" cy="7.847" rx="7.847" ry="7.847"/><ellipse class="f" cx="7.847" cy="7.847" rx="7.347" ry="7.347"/></g><g class="b" transform="translate(83.704 20.926)"><ellipse class="e" cx="7.847" cy="7.847" rx="7.847" ry="7.847"/><ellipse class="f" cx="7.847" cy="7.847" rx="7.347" ry="7.347"/></g><g class="a" transform="translate(62.778 41.851)"><ellipse class="e" cx="7.847" cy="7.847" rx="7.847" ry="7.847"/><ellipse class="f" cx="7.847" cy="7.847" rx="7.347" ry="7.347"/></g><g class="b" transform="translate(62.778 62.777)"><ellipse class="e" cx="7.847" cy="7.847" rx="7.847" ry="7.847"/><ellipse class="f" cx="7.847" cy="7.847" rx="7.347" ry="7.347"/></g><g class="a" transform="translate(62.778 83.703)"><ellipse class="e" cx="7.847" cy="7.847" rx="7.847" ry="7.847"/><ellipse class="f" cx="7.847" cy="7.847" rx="7.347" ry="7.347"/></g><g class="a" transform="translate(83.704 41.851)"><ellipse class="e" cx="7.847" cy="7.847" rx="7.847" ry="7.847"/><ellipse class="f" cx="7.847" cy="7.847" rx="7.347" ry="7.347"/></g><g class="a" transform="translate(104.629 41.851)"><ellipse class="e" cx="7.847" cy="7.847" rx="7.847" ry="7.847"/><ellipse class="f" cx="7.847" cy="7.847" rx="7.347" ry="7.347"/></g><g class="a" transform="translate(125.555 41.851)"><ellipse class="e" cx="7.847" cy="7.847" rx="7.847" ry="7.847"/><ellipse class="f" cx="7.847" cy="7.847" rx="7.347" ry="7.347"/></g><g class="a" transform="translate(83.704 62.777)"><ellipse class="e" cx="7.847" cy="7.847" rx="7.847" ry="7.847"/><ellipse class="f" cx="7.847" cy="7.847" rx="7.347" ry="7.347"/></g><g class="a" transform="translate(83.704 83.703)"><ellipse class="e" cx="7.847" cy="7.847" rx="7.847" ry="7.847"/><ellipse class="f" cx="7.847" cy="7.847" rx="7.347" ry="7.347"/></g><g class="a" transform="translate(125.555 62.777)"><ellipse class="e" cx="7.847" cy="7.847" rx="7.847" ry="7.847"/><ellipse class="f" cx="7.847" cy="7.847" rx="7.347" ry="7.347"/></g><g class="a" transform="translate(146.481 62.777)"><ellipse class="e" cx="7.847" cy="7.847" rx="7.847" ry="7.847"/><ellipse class="f" cx="7.847" cy="7.847" rx="7.347" ry="7.347"/></g><g class="a" transform="translate(125.555 83.703)"><ellipse class="e" cx="7.847" cy="7.847" rx="7.847" ry="7.847"/><ellipse class="f" cx="7.847" cy="7.847" rx="7.347" ry="7.347"/></g><g class="a" transform="translate(125.555 104.629)"><ellipse class="e" cx="7.847" cy="7.847" rx="7.847" ry="7.847"/><ellipse class="f" cx="7.847" cy="7.847" rx="7.347" ry="7.347"/></g><g class="a" transform="translate(146.481 83.703)"><ellipse class="e" cx="7.847" cy="7.847" rx="7.847" ry="7.847"/><ellipse class="f" cx="7.847" cy="7.847" rx="7.347" ry="7.347"/></g><g class="a" transform="translate(167.407 83.703)"><ellipse class="e" cx="7.847" cy="7.847" rx="7.847" ry="7.847"/><ellipse class="f" cx="7.847" cy="7.847" rx="7.347" ry="7.347"/></g><g class="a" transform="translate(188.332 83.703)"><ellipse class="e" cx="7.847" cy="7.847" rx="7.847" ry="7.847"/><ellipse class="f" cx="7.847" cy="7.847" rx="7.347" ry="7.347"/></g><g class="a" transform="translate(209.258 83.703)"><ellipse class="e" cx="7.847" cy="7.847" rx="7.847" ry="7.847"/><ellipse class="f" cx="7.847" cy="7.847" rx="7.347" ry="7.347"/></g><g class="a" transform="translate(230.184 83.703)"><ellipse class="e" cx="7.847" cy="7.847" rx="7.847" ry="7.847"/><ellipse class="f" cx="7.847" cy="7.847" rx="7.347" ry="7.347"/></g><g class="a" transform="translate(146.481 104.628)"><ellipse class="e" cx="7.847" cy="7.847" rx="7.847" ry="7.847"/><ellipse class="f" cx="7.847" cy="7.847" rx="7.347" ry="7.347"/></g><g class="a" transform="translate(146.481 125.553)"><ellipse class="e" cx="7.847" cy="7.847" rx="7.847" ry="7.847"/><ellipse class="f" cx="7.847" cy="7.847" rx="7.347" ry="7.347"/></g><g class="a" transform="translate(167.407 104.628)"><ellipse class="e" cx="7.847" cy="7.847" rx="7.847" ry="7.847"/><ellipse class="f" cx="7.847" cy="7.847" rx="7.347" ry="7.347"/></g><g class="a" transform="translate(167.407 125.553)"><ellipse class="e" cx="7.847" cy="7.847" rx="7.847" ry="7.847"/><ellipse class="f" cx="7.847" cy="7.847" rx="7.347" ry="7.347"/></g><g class="a" transform="translate(167.407 146.48)"><ellipse class="e" cx="7.847" cy="7.847" rx="7.847" ry="7.847"/><ellipse class="f" cx="7.847" cy="7.847" rx="7.347" ry="7.347"/></g><g class="a" transform="translate(188.332 104.628)"><ellipse class="e" cx="7.847" cy="7.847" rx="7.847" ry="7.847"/><ellipse class="f" cx="7.847" cy="7.847" rx="7.347" ry="7.347"/></g><g class="a" transform="translate(209.258 104.628)"><ellipse class="e" cx="7.847" cy="7.847" rx="7.847" ry="7.847"/><ellipse class="f" cx="7.847" cy="7.847" rx="7.347" ry="7.347"/></g><g class="a" transform="translate(230.184 104.628)"><ellipse class="e" cx="7.847" cy="7.847" rx="7.847" ry="7.847"/><ellipse class="f" cx="7.847" cy="7.847" rx="7.347" ry="7.347"/></g><g class="a" transform="translate(251.109 104.628)"><ellipse class="e" cx="7.847" cy="7.847" rx="7.847" ry="7.847"/><ellipse class="f" cx="7.847" cy="7.847" rx="7.347" ry="7.347"/></g><g class="a" transform="translate(188.332 125.555)"><ellipse class="e" cx="7.847" cy="7.847" rx="7.847" ry="7.847"/><ellipse class="f" cx="7.847" cy="7.847" rx="7.347" ry="7.347"/></g><g class="a" transform="translate(188.332 146.482)"><ellipse class="e" cx="7.847" cy="7.847" rx="7.847" ry="7.847"/><ellipse class="f" cx="7.847" cy="7.847" rx="7.347" ry="7.347"/></g><g class="a" transform="translate(209.258 125.555)"><ellipse class="e" cx="7.847" cy="7.847" rx="7.847" ry="7.847"/><ellipse class="f" cx="7.847" cy="7.847" rx="7.347" ry="7.347"/></g><g class="a" transform="translate(230.184 125.555)"><ellipse class="e" cx="7.847" cy="7.847" rx="7.847" ry="7.847"/><ellipse class="f" cx="7.847" cy="7.847" rx="7.347" ry="7.347"/></g><g class="a" transform="translate(251.109 125.555)"><ellipse class="e" cx="7.847" cy="7.847" rx="7.847" ry="7.847"/><ellipse class="f" cx="7.847" cy="7.847" rx="7.347" ry="7.347"/></g><g class="a" transform="translate(272.035 125.555)"><ellipse class="e" cx="7.847" cy="7.847" rx="7.847" ry="7.847"/><ellipse class="f" cx="7.847" cy="7.847" rx="7.347" ry="7.347"/></g><g class="a" transform="translate(209.258 146.48)"><ellipse class="e" cx="7.847" cy="7.847" rx="7.847" ry="7.847"/><ellipse class="f" cx="7.847" cy="7.847" rx="7.347" ry="7.347"/></g><g class="a" transform="translate(209.258 167.405)"><ellipse class="e" cx="7.847" cy="7.847" rx="7.847" ry="7.847"/><ellipse class="f" cx="7.847" cy="7.847" rx="7.347" ry="7.347"/></g><g class="a" transform="translate(230.184 146.48)"><ellipse class="e" cx="7.847" cy="7.847" rx="7.847" ry="7.847"/><ellipse class="f" cx="7.847" cy="7.847" rx="7.347" ry="7.347"/></g><g class="a" transform="translate(251.109 146.48)"><ellipse class="e" cx="7.847" cy="7.847" rx="7.847" ry="7.847"/><ellipse class="f" cx="7.847" cy="7.847" rx="7.347" ry="7.347"/></g><g class="a" transform="translate(272.035 146.48)"><ellipse class="e" cx="7.847" cy="7.847" rx="7.847" ry="7.847"/><ellipse class="f" cx="7.847" cy="7.847" rx="7.347" ry="7.347"/></g><g class="b" transform="translate(292.961 146.48)"><ellipse class="e" cx="7.847" cy="7.847" rx="7.847" ry="7.847"/><ellipse class="f" cx="7.847" cy="7.847" rx="7.347" ry="7.347"/></g><g class="a" transform="translate(230.184 167.406)"><ellipse class="e" cx="7.847" cy="7.847" rx="7.847" ry="7.847"/><ellipse class="f" cx="7.847" cy="7.847" rx="7.347" ry="7.347"/></g><g class="a" transform="translate(230.184 188.333)"><ellipse class="e" cx="7.847" cy="7.847" rx="7.847" ry="7.847"/><ellipse class="f" cx="7.847" cy="7.847" rx="7.347" ry="7.347"/></g><g class="a" transform="translate(251.109 167.406)"><ellipse class="e" cx="7.847" cy="7.847" rx="7.847" ry="7.847"/><ellipse class="f" cx="7.847" cy="7.847" rx="7.347" ry="7.347"/></g><g class="a" transform="translate(251.109 188.333)"><ellipse class="e" cx="7.847" cy="7.847" rx="7.847" ry="7.847"/><ellipse class="f" cx="7.847" cy="7.847" rx="7.347" ry="7.347"/></g><g class="a" transform="translate(251.109 209.259)"><ellipse class="e" cx="7.847" cy="7.847" rx="7.847" ry="7.847"/><ellipse class="f" cx="7.847" cy="7.847" rx="7.347" ry="7.347"/></g><g class="a" transform="translate(272.035 167.406)"><ellipse class="e" cx="7.847" cy="7.847" rx="7.847" ry="7.847"/><ellipse class="f" cx="7.847" cy="7.847" rx="7.347" ry="7.347"/></g><g class="a" transform="translate(292.961 167.406)"><ellipse class="e" cx="7.847" cy="7.847" rx="7.847" ry="7.847"/><ellipse class="f" cx="7.847" cy="7.847" rx="7.347" ry="7.347"/></g><g class="a" transform="translate(272.035 188.331)"><ellipse class="e" cx="7.847" cy="7.847" rx="7.847" ry="7.847"/><ellipse class="f" cx="7.847" cy="7.847" rx="7.347" ry="7.347"/></g><g class="a" transform="translate(272.035 209.257)"><ellipse class="e" cx="7.847" cy="7.847" rx="7.847" ry="7.847"/><ellipse class="f" cx="7.847" cy="7.847" rx="7.347" ry="7.347"/></g><g class="a" transform="translate(272.035 230.183)"><ellipse class="e" cx="7.847" cy="7.847" rx="7.847" ry="7.847"/><ellipse class="f" cx="7.847" cy="7.847" rx="7.347" ry="7.347"/></g><g class="a" transform="translate(292.961 188.331)"><ellipse class="e" cx="7.847" cy="7.847" rx="7.847" ry="7.847"/><ellipse class="f" cx="7.847" cy="7.847" rx="7.347" ry="7.347"/></g><g class="a" transform="translate(313.886 188.331)"><ellipse class="e" cx="7.847" cy="7.847" rx="7.847" ry="7.847"/><ellipse class="f" cx="7.847" cy="7.847" rx="7.347" ry="7.347"/></g><g class="a" transform="translate(292.961 209.257)"><ellipse class="e" cx="7.847" cy="7.847" rx="7.847" ry="7.847"/><ellipse class="f" cx="7.847" cy="7.847" rx="7.347" ry="7.347"/></g><g class="a" transform="translate(292.961 230.183)"><ellipse class="e" cx="7.847" cy="7.847" rx="7.847" ry="7.847"/><ellipse class="f" cx="7.847" cy="7.847" rx="7.347" ry="7.347"/></g><g class="a" transform="translate(292.961 251.109)"><ellipse class="e" cx="7.847" cy="7.847" rx="7.847" ry="7.847"/><ellipse class="f" cx="7.847" cy="7.847" rx="7.347" ry="7.347"/></g><g class="a" transform="translate(292.961 272.035)"><ellipse class="e" cx="7.847" cy="7.847" rx="7.847" ry="7.847"/><ellipse class="f" cx="7.847" cy="7.847" rx="7.347" ry="7.347"/></g><g class="a" transform="translate(313.886 209.257)"><ellipse class="e" cx="7.847" cy="7.847" rx="7.847" ry="7.847"/><ellipse class="f" cx="7.847" cy="7.847" rx="7.347" ry="7.347"/></g><g class="a" transform="translate(334.812 209.257)"><ellipse class="e" cx="7.847" cy="7.847" rx="7.847" ry="7.847"/><ellipse class="f" cx="7.847" cy="7.847" rx="7.347" ry="7.347"/></g><g class="a" transform="translate(313.886 230.183)"><ellipse class="e" cx="7.847" cy="7.847" rx="7.847" ry="7.847"/><ellipse class="f" cx="7.847" cy="7.847" rx="7.347" ry="7.347"/></g><g class="a" transform="translate(334.812 230.183)"><ellipse class="e" cx="7.847" cy="7.847" rx="7.847" ry="7.847"/><ellipse class="f" cx="7.847" cy="7.847" rx="7.347" ry="7.347"/></g><g class="a" transform="translate(355.738 230.183)"><ellipse class="e" cx="7.847" cy="7.847" rx="7.847" ry="7.847"/><ellipse class="f" cx="7.847" cy="7.847" rx="7.347" ry="7.347"/></g><g class="a" transform="translate(313.886 251.108)"><ellipse class="e" cx="7.847" cy="7.847" rx="7.847" ry="7.847"/><ellipse class="f" cx="7.847" cy="7.847" rx="7.347" ry="7.347"/></g><g class="a" transform="translate(313.886 272.034)"><ellipse class="e" cx="7.847" cy="7.847" rx="7.847" ry="7.847"/><ellipse class="f" cx="7.847" cy="7.847" rx="7.347" ry="7.347"/></g><g class="a" transform="translate(313.886 292.96)"><ellipse class="e" cx="7.847" cy="7.847" rx="7.847" ry="7.847"/><ellipse class="f" cx="7.847" cy="7.847" rx="7.347" ry="7.347"/></g><g class="a" transform="translate(292.96 292.96)"><ellipse class="e" cx="7.847" cy="7.847" rx="7.847" ry="7.847"/><ellipse class="f" cx="7.847" cy="7.847" rx="7.347" ry="7.347"/></g><g class="a" transform="translate(334.812 251.108)"><ellipse class="e" cx="7.847" cy="7.847" rx="7.847" ry="7.847"/><ellipse class="f" cx="7.847" cy="7.847" rx="7.347" ry="7.347"/></g><g class="a" transform="translate(355.738 251.108)"><ellipse class="e" cx="7.847" cy="7.847" rx="7.847" ry="7.847"/><ellipse class="f" cx="7.847" cy="7.847" rx="7.347" ry="7.347"/></g><g class="a" transform="translate(376.663 251.108)"><ellipse class="e" cx="7.847" cy="7.847" rx="7.847" ry="7.847"/><ellipse class="f" cx="7.847" cy="7.847" rx="7.347" ry="7.347"/></g><g class="a" transform="translate(397.589 251.108)"><ellipse class="e" cx="7.847" cy="7.847" rx="7.847" ry="7.847"/><ellipse class="f" cx="7.847" cy="7.847" rx="7.347" ry="7.347"/></g><g class="a" transform="translate(418.515 251.108)"><ellipse class="e" cx="7.847" cy="7.847" rx="7.847" ry="7.847"/><ellipse class="f" cx="7.847" cy="7.847" rx="7.347" ry="7.347"/></g><g class="a" transform="translate(334.812 272.034)"><ellipse class="e" cx="7.847" cy="7.847" rx="7.847" ry="7.847"/><ellipse class="f" cx="7.847" cy="7.847" rx="7.347" ry="7.347"/></g><g class="a" transform="translate(355.738 272.034)"><ellipse class="e" cx="7.847" cy="7.847" rx="7.847" ry="7.847"/><ellipse class="f" cx="7.847" cy="7.847" rx="7.347" ry="7.347"/></g><g class="a" transform="translate(376.663 272.034)"><ellipse class="e" cx="7.847" cy="7.847" rx="7.847" ry="7.847"/><ellipse class="f" cx="7.847" cy="7.847" rx="7.347" ry="7.347"/></g><g class="a" transform="translate(397.589 272.034)"><ellipse class="e" cx="7.847" cy="7.847" rx="7.847" ry="7.847"/><ellipse class="f" cx="7.847" cy="7.847" rx="7.347" ry="7.347"/></g><g class="a" transform="translate(418.515 272.034)"><ellipse class="e" cx="7.847" cy="7.847" rx="7.847" ry="7.847"/><ellipse class="f" cx="7.847" cy="7.847" rx="7.347" ry="7.347"/></g><g class="a" transform="translate(334.812 292.96)"><ellipse class="e" cx="7.847" cy="7.847" rx="7.847" ry="7.847"/><ellipse class="f" cx="7.847" cy="7.847" rx="7.347" ry="7.347"/></g><g class="a" transform="translate(355.738 292.96)"><ellipse class="e" cx="7.847" cy="7.847" rx="7.847" ry="7.847"/><ellipse class="f" cx="7.847" cy="7.847" rx="7.347" ry="7.347"/></g><g class="a" transform="translate(376.663 292.96)"><ellipse class="e" cx="7.847" cy="7.847" rx="7.847" ry="7.847"/><ellipse class="f" cx="7.847" cy="7.847" rx="7.347" ry="7.347"/></g><g class="a" transform="translate(397.589 292.96)"><ellipse class="e" cx="7.847" cy="7.847" rx="7.847" ry="7.847"/><ellipse class="f" cx="7.847" cy="7.847" rx="7.347" ry="7.347"/></g><g class="a" transform="translate(418.515 292.96)"><ellipse class="e" cx="7.847" cy="7.847" rx="7.847" ry="7.847"/><ellipse class="f" cx="7.847" cy="7.847" rx="7.347" ry="7.347"/></g><g class="a" transform="translate(313.886 313.886)"><ellipse class="e" cx="7.847" cy="7.847" rx="7.847" ry="7.847"/><ellipse class="f" cx="7.847" cy="7.847" rx="7.347" ry="7.347"/></g><g class="a" transform="translate(292.96 313.886)"><ellipse class="e" cx="7.847" cy="7.847" rx="7.847" ry="7.847"/><ellipse class="f" cx="7.847" cy="7.847" rx="7.347" ry="7.347"/></g><g class="a" transform="translate(334.812 313.886)"><ellipse class="e" cx="7.847" cy="7.847" rx="7.847" ry="7.847"/><ellipse class="f" cx="7.847" cy="7.847" rx="7.347" ry="7.347"/></g><g class="a" transform="translate(355.738 313.886)"><ellipse class="e" cx="7.847" cy="7.847" rx="7.847" ry="7.847"/><ellipse class="f" cx="7.847" cy="7.847" rx="7.347" ry="7.347"/></g><g class="a" transform="translate(376.663 313.886)"><ellipse class="e" cx="7.847" cy="7.847" rx="7.847" ry="7.847"/><ellipse class="f" cx="7.847" cy="7.847" rx="7.347" ry="7.347"/></g><g class="a" transform="translate(397.589 313.886)"><ellipse class="e" cx="7.847" cy="7.847" rx="7.847" ry="7.847"/><ellipse class="f" cx="7.847" cy="7.847" rx="7.347" ry="7.347"/></g><g class="a" transform="translate(418.515 313.886)"><ellipse class="e" cx="7.847" cy="7.847" rx="7.847" ry="7.847"/><ellipse class="f" cx="7.847" cy="7.847" rx="7.347" ry="7.347"/></g><g class="a" transform="translate(313.886 334.811)"><ellipse class="e" cx="7.847" cy="7.847" rx="7.847" ry="7.847"/><ellipse class="f" cx="7.847" cy="7.847" rx="7.347" ry="7.347"/></g><g class="a" transform="translate(292.96 334.811)"><ellipse class="e" cx="7.847" cy="7.847" rx="7.847" ry="7.847"/><ellipse class="f" cx="7.847" cy="7.847" rx="7.347" ry="7.347"/></g><g class="a" transform="translate(334.812 334.811)"><ellipse class="e" cx="7.847" cy="7.847" rx="7.847" ry="7.847"/><ellipse class="f" cx="7.847" cy="7.847" rx="7.347" ry="7.347"/></g><g class="a" transform="translate(355.738 334.811)"><ellipse class="e" cx="7.847" cy="7.847" rx="7.847" ry="7.847"/><ellipse class="f" cx="7.847" cy="7.847" rx="7.347" ry="7.347"/></g><g class="a" transform="translate(376.663 334.811)"><ellipse class="e" cx="7.847" cy="7.847" rx="7.847" ry="7.847"/><ellipse class="f" cx="7.847" cy="7.847" rx="7.347" ry="7.347"/></g><g class="a" transform="translate(397.589 334.811)"><ellipse class="e" cx="7.847" cy="7.847" rx="7.847" ry="7.847"/><ellipse class="f" cx="7.847" cy="7.847" rx="7.347" ry="7.347"/></g><g class="a" transform="translate(313.886 355.737)"><ellipse class="e" cx="7.847" cy="7.847" rx="7.847" ry="7.847"/><ellipse class="f" cx="7.847" cy="7.847" rx="7.347" ry="7.347"/></g><g class="a" transform="translate(292.96 355.737)"><ellipse class="e" cx="7.847" cy="7.847" rx="7.847" ry="7.847"/><ellipse class="f" cx="7.847" cy="7.847" rx="7.347" ry="7.347"/></g><g class="a" transform="translate(334.812 355.737)"><ellipse class="e" cx="7.847" cy="7.847" rx="7.847" ry="7.847"/><ellipse class="f" cx="7.847" cy="7.847" rx="7.347" ry="7.347"/></g><g class="a" transform="translate(104.629 62.777)"><ellipse class="e" cx="7.847" cy="7.847" rx="7.847" ry="7.847"/><ellipse class="f" cx="7.847" cy="7.847" rx="7.347" ry="7.347"/></g><g class="a" transform="translate(104.629 83.703)"><ellipse class="e" cx="7.847" cy="7.847" rx="7.847" ry="7.847"/><ellipse class="f" cx="7.847" cy="7.847" rx="7.347" ry="7.347"/></g><g class="a" transform="translate(104.629 104.629)"><ellipse class="e" cx="7.847" cy="7.847" rx="7.847" ry="7.847"/><ellipse class="f" cx="7.847" cy="7.847" rx="7.347" ry="7.347"/></g></g><g transform="translate(125.557 313.886)"><g class="a" transform="translate(0)"><ellipse class="e" cx="7.847" cy="7.847" rx="7.847" ry="7.847"/><ellipse class="f" cx="7.847" cy="7.847" rx="7.347" ry="7.347"/></g><g class="a" transform="translate(20.926)"><ellipse class="e" cx="7.847" cy="7.847" rx="7.847" ry="7.847"/><ellipse class="f" cx="7.847" cy="7.847" rx="7.347" ry="7.347"/></g><g class="a" transform="translate(41.851)"><ellipse class="e" cx="7.847" cy="7.847" rx="7.847" ry="7.847"/><ellipse class="f" cx="7.847" cy="7.847" rx="7.347" ry="7.347"/></g><g class="a" transform="translate(62.778)"><ellipse class="e" cx="7.847" cy="7.847" rx="7.847" ry="7.847"/><ellipse class="f" cx="7.847" cy="7.847" rx="7.347" ry="7.347"/></g><g class="a" transform="translate(20.926 20.925)"><ellipse class="e" cx="7.847" cy="7.847" rx="7.847" ry="7.847"/><ellipse class="f" cx="7.847" cy="7.847" rx="7.347" ry="7.347"/></g><g class="b" transform="translate(41.851 20.925)"><ellipse class="e" cx="7.847" cy="7.847" rx="7.847" ry="7.847"/><ellipse class="f" cx="7.847" cy="7.847" rx="7.347" ry="7.347"/></g><g class="a" transform="translate(62.778 20.925)"><ellipse class="e" cx="7.847" cy="7.847" rx="7.847" ry="7.847"/><ellipse class="f" cx="7.847" cy="7.847" rx="7.347" ry="7.347"/></g><g class="a" transform="translate(83.703 20.925)"><ellipse class="e" cx="7.847" cy="7.847" rx="7.847" ry="7.847"/><ellipse class="f" cx="7.847" cy="7.847" rx="7.347" ry="7.347"/></g><g class="a" transform="translate(104.629 20.925)"><ellipse class="e" cx="7.847" cy="7.847" rx="7.847" ry="7.847"/><ellipse class="f" cx="7.847" cy="7.847" rx="7.347" ry="7.347"/></g><g class="a" transform="translate(125.554 20.925)"><ellipse class="e" cx="7.847" cy="7.847" rx="7.847" ry="7.847"/><ellipse class="f" cx="7.847" cy="7.847" rx="7.347" ry="7.347"/></g><g class="a" transform="translate(20.926 41.851)"><ellipse class="e" cx="7.847" cy="7.847" rx="7.847" ry="7.847"/><ellipse class="f" cx="7.847" cy="7.847" rx="7.347" ry="7.347"/></g><g class="a" transform="translate(41.851 41.851)"><ellipse class="e" cx="7.847" cy="7.847" rx="7.847" ry="7.847"/><ellipse class="f" cx="7.847" cy="7.847" rx="7.347" ry="7.347"/></g><g class="b" transform="translate(41.851 62.776)"><ellipse class="e" cx="7.847" cy="7.847" rx="7.847" ry="7.847"/><ellipse class="f" cx="7.847" cy="7.847" rx="7.347" ry="7.347"/></g><g class="a" transform="translate(62.778 41.851)"><ellipse class="e" cx="7.847" cy="7.847" rx="7.847" ry="7.847"/><ellipse class="f" cx="7.847" cy="7.847" rx="7.347" ry="7.347"/></g><g class="a" transform="translate(62.778 62.776)"><ellipse class="e" cx="7.847" cy="7.847" rx="7.847" ry="7.847"/><ellipse class="f" cx="7.847" cy="7.847" rx="7.347" ry="7.347"/></g><g class="a" transform="translate(62.778 104.626)"><ellipse class="e" cx="7.847" cy="7.847" rx="7.847" ry="7.847"/><ellipse class="f" cx="7.847" cy="7.847" rx="7.347" ry="7.347"/></g><g class="a" transform="translate(83.703 41.851)"><ellipse class="e" cx="7.847" cy="7.847" rx="7.847" ry="7.847"/><ellipse class="f" cx="7.847" cy="7.847" rx="7.347" ry="7.347"/></g><g class="a" transform="translate(83.703 62.776)"><ellipse class="e" cx="7.847" cy="7.847" rx="7.847" ry="7.847"/><ellipse class="f" cx="7.847" cy="7.847" rx="7.347" ry="7.347"/></g><g class="a" transform="translate(104.629 41.851)"><ellipse class="e" cx="7.847" cy="7.847" rx="7.847" ry="7.847"/><ellipse class="f" cx="7.847" cy="7.847" rx="7.347" ry="7.347"/></g><g class="a" transform="translate(104.629 62.776)"><ellipse class="e" cx="7.847" cy="7.847" rx="7.847" ry="7.847"/><ellipse class="f" cx="7.847" cy="7.847" rx="7.347" ry="7.347"/></g><g class="a" transform="translate(125.554 41.851)"><ellipse class="e" cx="7.847" cy="7.847" rx="7.847" ry="7.847"/><ellipse class="f" cx="7.847" cy="7.847" rx="7.347" ry="7.347"/></g><g class="a" transform="translate(125.554 62.776)"><ellipse class="e" cx="7.847" cy="7.847" rx="7.847" ry="7.847"/><ellipse class="f" cx="7.847" cy="7.847" rx="7.347" ry="7.347"/></g><g class="a" transform="translate(125.554 83.701)"><ellipse class="e" cx="7.847" cy="7.847" rx="7.847" ry="7.847"/><ellipse class="f" cx="7.847" cy="7.847" rx="7.347" ry="7.347"/></g><g class="a" transform="translate(146.48 41.851)"><ellipse class="e" cx="7.847" cy="7.847" rx="7.847" ry="7.847"/><ellipse class="f" cx="7.847" cy="7.847" rx="7.347" ry="7.347"/></g><g class="a" transform="translate(146.48 62.776)"><ellipse class="e" cx="7.847" cy="7.847" rx="7.847" ry="7.847"/><ellipse class="f" cx="7.847" cy="7.847" rx="7.347" ry="7.347"/></g><g class="a" transform="translate(146.48 83.702)"><ellipse class="e" cx="7.847" cy="7.847" rx="7.847" ry="7.847"/><ellipse class="f" cx="7.847" cy="7.847" rx="7.347" ry="7.347"/></g><g class="a" transform="translate(167.406 62.776)"><ellipse class="e" cx="7.847" cy="7.847" rx="7.847" ry="7.847"/><ellipse class="f" cx="7.847" cy="7.847" rx="7.347" ry="7.347"/></g><g class="a" transform="translate(167.406 83.702)"><ellipse class="e" cx="7.847" cy="7.847" rx="7.847" ry="7.847"/><ellipse class="f" cx="7.847" cy="7.847" rx="7.347" ry="7.347"/></g></g><g transform="translate(0 62.777)"><g class="a" transform="translate(41.854)"><ellipse class="e" cx="7.847" cy="7.847" rx="7.847" ry="7.847"/><ellipse class="f" cx="7.847" cy="7.847" rx="7.347" ry="7.347"/></g><g class="a" transform="translate(62.78)"><ellipse class="e" cx="7.847" cy="7.847" rx="7.847" ry="7.847"/><ellipse class="f" cx="7.847" cy="7.847" rx="7.347" ry="7.347"/></g><g class="a" transform="translate(83.706)"><ellipse class="e" cx="7.847" cy="7.847" rx="7.847" ry="7.847"/><ellipse class="f" cx="7.847" cy="7.847" rx="7.347" ry="7.347"/></g><g class="a" transform="translate(0.003 20.926)"><ellipse class="e" cx="7.847" cy="7.847" rx="7.847" ry="7.847"/><ellipse class="f" cx="7.847" cy="7.847" rx="7.347" ry="7.347"/></g><g class="a" transform="translate(20.929 20.926)"><ellipse class="e" cx="7.847" cy="7.847" rx="7.847" ry="7.847"/><ellipse class="f" cx="7.847" cy="7.847" rx="7.347" ry="7.347"/></g><g class="b" transform="translate(41.854 20.926)"><ellipse class="e" cx="7.847" cy="7.847" rx="7.847" ry="7.847"/><ellipse class="f" cx="7.847" cy="7.847" rx="7.347" ry="7.347"/></g><g class="a" transform="translate(62.78 20.926)"><ellipse class="e" cx="7.847" cy="7.847" rx="7.847" ry="7.847"/><ellipse class="f" cx="7.847" cy="7.847" rx="7.347" ry="7.347"/></g><g class="a" transform="translate(83.706 20.926)"><ellipse class="e" cx="7.847" cy="7.847" rx="7.847" ry="7.847"/><ellipse class="f" cx="7.847" cy="7.847" rx="7.347" ry="7.347"/></g><g class="a" transform="translate(104.632 20.926)"><ellipse class="e" cx="7.847" cy="7.847" rx="7.847" ry="7.847"/><ellipse class="f" cx="7.847" cy="7.847" rx="7.347" ry="7.347"/></g><g class="a" transform="translate(20.929 41.851)"><ellipse class="e" cx="7.847" cy="7.847" rx="7.847" ry="7.847"/><ellipse class="f" cx="7.847" cy="7.847" rx="7.347" ry="7.347"/></g><g class="a" transform="translate(0 41.851)"><ellipse class="e" cx="7.847" cy="7.847" rx="7.847" ry="7.847"/><ellipse class="f" cx="7.847" cy="7.847" rx="7.347" ry="7.347"/></g><g class="a" transform="translate(41.854 41.851)"><ellipse class="e" cx="7.847" cy="7.847" rx="7.847" ry="7.847"/><ellipse class="f" cx="7.847" cy="7.847" rx="7.347" ry="7.347"/></g><g class="a" transform="translate(62.78 41.851)"><ellipse class="e" cx="7.847" cy="7.847" rx="7.847" ry="7.847"/><ellipse class="f" cx="7.847" cy="7.847" rx="7.347" ry="7.347"/></g><g class="a" transform="translate(83.706 41.851)"><ellipse class="e" cx="7.847" cy="7.847" rx="7.847" ry="7.847"/><ellipse class="f" cx="7.847" cy="7.847" rx="7.347" ry="7.347"/></g><g class="a" transform="translate(104.632 41.851)"><ellipse class="e" cx="7.847" cy="7.847" rx="7.847" ry="7.847"/><ellipse class="f" cx="7.847" cy="7.847" rx="7.347" ry="7.347"/></g><g class="a" transform="translate(125.557 41.851)"><ellipse class="e" cx="7.847" cy="7.847" rx="7.847" ry="7.847"/><ellipse class="f" cx="7.847" cy="7.847" rx="7.347" ry="7.347"/></g><g class="a" transform="translate(146.483 41.851)"><ellipse class="e" cx="7.847" cy="7.847" rx="7.847" ry="7.847"/><ellipse class="f" cx="7.847" cy="7.847" rx="7.347" ry="7.347"/></g><g class="a" transform="translate(41.854 62.778)"><ellipse class="e" cx="7.847" cy="7.847" rx="7.847" ry="7.847"/><ellipse class="f" cx="7.847" cy="7.847" rx="7.347" ry="7.347"/></g><g class="a" transform="translate(20.927 62.778)"><ellipse class="e" cx="7.847" cy="7.847" rx="7.847" ry="7.847"/><ellipse class="f" cx="7.847" cy="7.847" rx="7.347" ry="7.347"/></g><g class="a" transform="translate(62.78 62.778)"><ellipse class="e" cx="7.847" cy="7.847" rx="7.847" ry="7.847"/><ellipse class="f" cx="7.847" cy="7.847" rx="7.347" ry="7.347"/></g><g class="a" transform="translate(83.706 62.778)"><ellipse class="e" cx="7.847" cy="7.847" rx="7.847" ry="7.847"/><ellipse class="f" cx="7.847" cy="7.847" rx="7.347" ry="7.347"/></g><g class="a" transform="translate(104.632 62.778)"><ellipse class="e" cx="7.847" cy="7.847" rx="7.847" ry="7.847"/><ellipse class="f" cx="7.847" cy="7.847" rx="7.347" ry="7.347"/></g><g class="a" transform="translate(125.557 62.778)"><ellipse class="e" cx="7.847" cy="7.847" rx="7.847" ry="7.847"/><ellipse class="f" cx="7.847" cy="7.847" rx="7.347" ry="7.347"/></g><g class="a" transform="translate(146.483 62.778)"><ellipse class="e" cx="7.847" cy="7.847" rx="7.847" ry="7.847"/><ellipse class="f" cx="7.847" cy="7.847" rx="7.347" ry="7.347"/></g><g class="b" transform="translate(167.408 62.778)"><ellipse class="e" cx="7.847" cy="7.847" rx="7.847" ry="7.847"/><ellipse class="f" cx="7.847" cy="7.847" rx="7.347" ry="7.347"/></g><g class="a" transform="translate(188.335 62.778)"><ellipse class="e" cx="7.847" cy="7.847" rx="7.847" ry="7.847"/><ellipse class="f" cx="7.847" cy="7.847" rx="7.347" ry="7.347"/></g><g class="a" transform="translate(83.706 83.703)"><ellipse class="e" cx="7.847" cy="7.847" rx="7.847" ry="7.847"/><ellipse class="f" cx="7.847" cy="7.847" rx="7.347" ry="7.347"/></g><g class="a" transform="translate(62.779 83.703)"><ellipse class="e" cx="7.847" cy="7.847" rx="7.847" ry="7.847"/><ellipse class="f" cx="7.847" cy="7.847" rx="7.347" ry="7.347"/></g><g class="a" transform="translate(41.855 83.703)"><ellipse class="e" cx="7.847" cy="7.847" rx="7.847" ry="7.847"/><ellipse class="f" cx="7.847" cy="7.847" rx="7.347" ry="7.347"/></g><g class="a" transform="translate(20.927 83.703)"><ellipse class="e" cx="7.847" cy="7.847" rx="7.847" ry="7.847"/><ellipse class="f" cx="7.847" cy="7.847" rx="7.347" ry="7.347"/></g><g class="a" transform="translate(104.632 83.703)"><ellipse class="e" cx="7.847" cy="7.847" rx="7.847" ry="7.847"/><ellipse class="f" cx="7.847" cy="7.847" rx="7.347" ry="7.347"/></g><g class="a" transform="translate(125.557 83.703)"><ellipse class="e" cx="7.847" cy="7.847" rx="7.847" ry="7.847"/><ellipse class="f" cx="7.847" cy="7.847" rx="7.347" ry="7.347"/></g><g class="a" transform="translate(146.483 83.703)"><ellipse class="e" cx="7.847" cy="7.847" rx="7.847" ry="7.847"/><ellipse class="f" cx="7.847" cy="7.847" rx="7.347" ry="7.347"/></g><g class="a" transform="translate(167.408 83.703)"><ellipse class="e" cx="7.847" cy="7.847" rx="7.847" ry="7.847"/><ellipse class="f" cx="7.847" cy="7.847" rx="7.347" ry="7.347"/></g><g class="a" transform="translate(188.335 83.703)"><ellipse class="e" cx="7.847" cy="7.847" rx="7.847" ry="7.847"/><ellipse class="f" cx="7.847" cy="7.847" rx="7.347" ry="7.347"/></g><g class="a" transform="translate(209.26 83.703)"><ellipse class="e" cx="7.847" cy="7.847" rx="7.847" ry="7.847"/><ellipse class="f" cx="7.847" cy="7.847" rx="7.347" ry="7.347"/></g><g class="a" transform="translate(125.557 104.629)"><ellipse class="e" cx="7.847" cy="7.847" rx="7.847" ry="7.847"/><ellipse class="f" cx="7.847" cy="7.847" rx="7.347" ry="7.347"/></g><g class="a" transform="translate(104.63 104.629)"><ellipse class="e" cx="7.847" cy="7.847" rx="7.847" ry="7.847"/><ellipse class="f" cx="7.847" cy="7.847" rx="7.347" ry="7.347"/></g><g class="a" transform="translate(83.704 104.629)"><ellipse class="e" cx="7.847" cy="7.847" rx="7.847" ry="7.847"/><ellipse class="f" cx="7.847" cy="7.847" rx="7.347" ry="7.347"/></g><g class="a" transform="translate(62.779 104.629)"><ellipse class="e" cx="7.847" cy="7.847" rx="7.847" ry="7.847"/><ellipse class="f" cx="7.847" cy="7.847" rx="7.347" ry="7.347"/></g><g class="a" transform="translate(146.483 104.629)"><ellipse class="e" cx="7.847" cy="7.847" rx="7.847" ry="7.847"/><ellipse class="f" cx="7.847" cy="7.847" rx="7.347" ry="7.347"/></g><g class="a" transform="translate(167.408 104.629)"><ellipse class="e" cx="7.847" cy="7.847" rx="7.847" ry="7.847"/><ellipse class="f" cx="7.847" cy="7.847" rx="7.347" ry="7.347"/></g><g class="a" transform="translate(188.335 104.629)"><ellipse class="e" cx="7.847" cy="7.847" rx="7.847" ry="7.847"/><ellipse class="f" cx="7.847" cy="7.847" rx="7.347" ry="7.347"/></g><g class="b" transform="translate(209.26 104.629)"><ellipse class="e" cx="7.847" cy="7.847" rx="7.847" ry="7.847"/><ellipse class="f" cx="7.847" cy="7.847" rx="7.347" ry="7.347"/></g><g class="a" transform="translate(230.186 104.629)"><ellipse class="e" cx="7.847" cy="7.847" rx="7.847" ry="7.847"/><ellipse class="f" cx="7.847" cy="7.847" rx="7.347" ry="7.347"/></g><g class="a" transform="translate(251.112 104.629)"><ellipse class="e" cx="7.847" cy="7.847" rx="7.847" ry="7.847"/><ellipse class="f" cx="7.847" cy="7.847" rx="7.347" ry="7.347"/></g><g class="a" transform="translate(167.408 125.554)"><ellipse class="e" cx="7.847" cy="7.847" rx="7.847" ry="7.847"/><ellipse class="f" cx="7.847" cy="7.847" rx="7.347" ry="7.347"/></g><g class="a" transform="translate(146.482 125.554)"><ellipse class="e" cx="7.847" cy="7.847" rx="7.847" ry="7.847"/><ellipse class="f" cx="7.847" cy="7.847" rx="7.347" ry="7.347"/></g><g class="a" transform="translate(125.556 125.554)"><ellipse class="e" cx="7.847" cy="7.847" rx="7.847" ry="7.847"/><ellipse class="f" cx="7.847" cy="7.847" rx="7.347" ry="7.347"/></g><g class="a" transform="translate(188.335 125.554)"><ellipse class="e" cx="7.847" cy="7.847" rx="7.847" ry="7.847"/><ellipse class="f" cx="7.847" cy="7.847" rx="7.347" ry="7.347"/></g><g class="a" transform="translate(209.26 125.554)"><ellipse class="e" cx="7.847" cy="7.847" rx="7.847" ry="7.847"/><ellipse class="f" cx="7.847" cy="7.847" rx="7.347" ry="7.347"/></g><g class="a" transform="translate(230.186 125.554)"><ellipse class="e" cx="7.847" cy="7.847" rx="7.847" ry="7.847"/><ellipse class="f" cx="7.847" cy="7.847" rx="7.347" ry="7.347"/></g><g class="b" transform="translate(251.112 125.554)"><ellipse class="e" cx="7.847" cy="7.847" rx="7.847" ry="7.847"/><ellipse class="f" cx="7.847" cy="7.847" rx="7.347" ry="7.347"/></g><g class="a" transform="translate(272.037 125.554)"><ellipse class="e" cx="7.847" cy="7.847" rx="7.847" ry="7.847"/><ellipse class="f" cx="7.847" cy="7.847" rx="7.347" ry="7.347"/></g><g class="a" transform="translate(230.186 146.48)"><ellipse class="e" cx="7.847" cy="7.847" rx="7.847" ry="7.847"/><ellipse class="f" cx="7.847" cy="7.847" rx="7.347" ry="7.347"/></g><g class="a" transform="translate(209.26 146.48)"><ellipse class="e" cx="7.847" cy="7.847" rx="7.847" ry="7.847"/><ellipse class="f" cx="7.847" cy="7.847" rx="7.347" ry="7.347"/></g><g class="a" transform="translate(188.335 146.48)"><ellipse class="e" cx="7.847" cy="7.847" rx="7.847" ry="7.847"/><ellipse class="f" cx="7.847" cy="7.847" rx="7.347" ry="7.347"/></g><g class="a" transform="translate(167.409 146.48)"><ellipse class="e" cx="7.847" cy="7.847" rx="7.847" ry="7.847"/><ellipse class="f" cx="7.847" cy="7.847" rx="7.347" ry="7.347"/></g><g class="a" transform="translate(251.112 146.48)"><ellipse class="e" cx="7.847" cy="7.847" rx="7.847" ry="7.847"/><ellipse class="f" cx="7.847" cy="7.847" rx="7.347" ry="7.347"/></g><g class="a" transform="translate(272.037 146.48)"><ellipse class="e" cx="7.847" cy="7.847" rx="7.847" ry="7.847"/><ellipse class="f" cx="7.847" cy="7.847" rx="7.347" ry="7.347"/></g><g class="a" transform="translate(292.963 146.48)"><ellipse class="e" cx="7.847" cy="7.847" rx="7.847" ry="7.847"/><ellipse class="f" cx="7.847" cy="7.847" rx="7.347" ry="7.347"/></g><g class="a" transform="translate(272.037 167.406)"><ellipse class="e" cx="7.847" cy="7.847" rx="7.847" ry="7.847"/><ellipse class="f" cx="7.847" cy="7.847" rx="7.347" ry="7.347"/></g><g class="a" transform="translate(251.111 167.406)"><ellipse class="e" cx="7.847" cy="7.847" rx="7.847" ry="7.847"/><ellipse class="f" cx="7.847" cy="7.847" rx="7.347" ry="7.347"/></g><g class="a" transform="translate(230.186 167.406)"><ellipse class="e" cx="7.847" cy="7.847" rx="7.847" ry="7.847"/><ellipse class="f" cx="7.847" cy="7.847" rx="7.347" ry="7.347"/></g><g class="a" transform="translate(292.963 167.406)"><ellipse class="e" cx="7.847" cy="7.847" rx="7.847" ry="7.847"/><ellipse class="f" cx="7.847" cy="7.847" rx="7.347" ry="7.347"/></g><g class="a" transform="translate(313.888 167.406)"><ellipse class="e" cx="7.847" cy="7.847" rx="7.847" ry="7.847"/><ellipse class="f" cx="7.847" cy="7.847" rx="7.347" ry="7.347"/></g><g class="a" transform="translate(313.888 188.331)"><ellipse class="e" cx="7.847" cy="7.847" rx="7.847" ry="7.847"/><ellipse class="f" cx="7.847" cy="7.847" rx="7.347" ry="7.347"/></g><g class="a" transform="translate(292.963 188.331)"><ellipse class="e" cx="7.847" cy="7.847" rx="7.847" ry="7.847"/><ellipse class="f" cx="7.847" cy="7.847" rx="7.347" ry="7.347"/></g><g class="a" transform="translate(272.038 188.331)"><ellipse class="e" cx="7.847" cy="7.847" rx="7.847" ry="7.847"/><ellipse class="f" cx="7.847" cy="7.847" rx="7.347" ry="7.347"/></g><g class="a" transform="translate(334.814 188.331)"><ellipse class="e" cx="7.847" cy="7.847" rx="7.847" ry="7.847"/><ellipse class="f" cx="7.847" cy="7.847" rx="7.347" ry="7.347"/></g><g class="a" transform="translate(334.814 209.257)"><ellipse class="e" cx="7.847" cy="7.847" rx="7.847" ry="7.847"/><ellipse class="f" cx="7.847" cy="7.847" rx="7.347" ry="7.347"/></g><g class="a" transform="translate(313.889 209.257)"><ellipse class="e" cx="7.847" cy="7.847" rx="7.847" ry="7.847"/><ellipse class="f" cx="7.847" cy="7.847" rx="7.347" ry="7.347"/></g><g class="a" transform="translate(292.964 209.257)"><ellipse class="e" cx="7.847" cy="7.847" rx="7.847" ry="7.847"/><ellipse class="f" cx="7.847" cy="7.847" rx="7.347" ry="7.347"/></g><g class="a" transform="translate(334.814 230.183)"><ellipse class="e" cx="7.847" cy="7.847" rx="7.847" ry="7.847"/><ellipse class="f" cx="7.847" cy="7.847" rx="7.347" ry="7.347"/></g></g><g transform="translate(188.334 397.588)"><g class="b"><ellipse class="e" cx="7.847" cy="7.847" rx="7.847" ry="7.847"/><ellipse class="f" cx="7.847" cy="7.847" rx="7.347" ry="7.347"/></g><g class="a" transform="translate(20.926)"><ellipse class="e" cx="7.847" cy="7.847" rx="7.847" ry="7.847"/><ellipse class="f" cx="7.847" cy="7.847" rx="7.347" ry="7.347"/></g><g class="b" transform="translate(41.851)"><ellipse class="e" cx="7.847" cy="7.847" rx="7.847" ry="7.847"/><ellipse class="f" cx="7.847" cy="7.847" rx="7.347" ry="7.347"/></g></g></g><path class="c" d="M-44.84-4.5q.08-.14.28-.02l1.1.6a.167.167,0,0,1,.06.26,8.293,8.293,0,0,0-.69,1.38,4.564,4.564,0,0,0-.33,1.72A3.138,3.138,0,0,0-44.13.87a2.447,2.447,0,0,0,.75.9,2.989,2.989,0,0,0,1,.47,4.213,4.213,0,0,0,1.06.14,3.244,3.244,0,0,0,2.1-.66A2.588,2.588,0,0,0-38.4-.42V-8a.177.177,0,0,1,.2-.2h1.28a.177.177,0,0,1,.2.2v.7a12,12,0,0,1,2.18-.88,8.515,8.515,0,0,1,2.46-.36,6.116,6.116,0,0,1,2.32.38,3.765,3.765,0,0,1,1.47,1.03,3.737,3.737,0,0,1,.77,1.51A7.319,7.319,0,0,1-27.3-3.8a8.029,8.029,0,0,1-.17,1.79A2.927,2.927,0,0,1-28-.83a1.951,1.951,0,0,1-.94.64A4.452,4.452,0,0,1-30.32,0h-6.42a4.053,4.053,0,0,1-1.32,2.93,4.937,4.937,0,0,1-3.36,1.05,6.145,6.145,0,0,1-1.95-.29,4.048,4.048,0,0,1-1.48-.85,3.859,3.859,0,0,1-.95-1.37A4.8,4.8,0,0,1-46.14-.4a6.688,6.688,0,0,1,.39-2.27A7.676,7.676,0,0,1-44.84-4.5ZM-32.2-6.98a6.975,6.975,0,0,0-1.22.11,10.321,10.321,0,0,0-1.21.29q-.59.18-1.12.4t-.97.44v4.18h5.82a3.517,3.517,0,0,0,.92-.1,1.053,1.053,0,0,0,.56-.35,1.468,1.468,0,0,0,.27-.7,7.725,7.725,0,0,0,.07-1.15,5.287,5.287,0,0,0-.15-1.32,2.3,2.3,0,0,0-.51-.98,2.27,2.27,0,0,0-.96-.61A4.592,4.592,0,0,0-32.2-6.98Zm-.62-3.18a.177.177,0,0,1-.2-.2v-1.46a.177.177,0,0,1,.2-.2h1.36a.177.177,0,0,1,.2.2v1.46a.177.177,0,0,1-.2.2Zm8.02-3.24a.177.177,0,0,1,.2-.2h1.28a.177.177,0,0,1,.2.2V-2.62a1.166,1.166,0,0,0,.23.83,1,1,0,0,0,.73.23h.88a.707.707,0,0,1,.8.8q0,.5-.19.63a1.106,1.106,0,0,1-.61.13h-1.18a2.3,2.3,0,0,1-1.8-.61,2.829,2.829,0,0,1-.54-1.91ZM-21.28,0a1.049,1.049,0,0,1-.6-.14.646.646,0,0,1-.2-.56.931.931,0,0,1,.19-.68.866.866,0,0,1,.61-.18h1.38a1,1,0,0,0,.73-.23,1.166,1.166,0,0,0,.23-.83V-7.98a.177.177,0,0,1,.2-.2h1.28a.177.177,0,0,1,.2.2v5.46A2.829,2.829,0,0,1-17.8-.61,2.3,2.3,0,0,1-19.6,0Zm3.3,3.72a.177.177,0,0,1-.2-.2V2.06a.177.177,0,0,1,.2-.2h1.36a.177.177,0,0,1,.2.2V3.52a.177.177,0,0,1-.2.2Zm-2.44,0a.177.177,0,0,1-.2-.2V2.06a.177.177,0,0,1,.2-.2h1.36a.177.177,0,0,1,.2.2V3.52a.177.177,0,0,1-.2.2Zm4.86.26a.177.177,0,0,1-.2-.2V2.62a.177.177,0,0,1,.2-.2h.46q1.62,0,1.62-1.7v-8.7a.177.177,0,0,1,.2-.2H-12a.177.177,0,0,1,.2.2v5.06a1.159,1.159,0,0,0,.49,1.02A2.259,2.259,0,0,0-10-1.56h.22a.907.907,0,0,1,.6.17.712.712,0,0,1,.2.57q0,.52-.19.67A.988.988,0,0,1-9.78,0h-.42a2.012,2.012,0,0,1-1.6-.64V.68a3.383,3.383,0,0,1-.82,2.46,3.206,3.206,0,0,1-2.4.84ZM-9.78,0a1.049,1.049,0,0,1-.6-.14.646.646,0,0,1-.2-.56.931.931,0,0,1,.19-.68.866.866,0,0,1,.61-.18h1.26a1,1,0,0,0,.73-.23,1.166,1.166,0,0,0,.23-.83V-13.4a.177.177,0,0,1,.2-.2h1.28a.177.177,0,0,1,.2.2V-2.52A2.829,2.829,0,0,1-6.42-.61,2.3,2.3,0,0,1-8.22,0ZM-1.4-.2a.177.177,0,0,1-.2.2H-2.88a.177.177,0,0,1-.2-.2V-13.4a.177.177,0,0,1,.2-.2H-1.6a.177.177,0,0,1,.2.2Z" transform="translate(1259.982 2238.247)"/><path class="c" d="M-41.26.14A4.6,4.6,0,0,1-43.09-.2a2.933,2.933,0,0,1-1.29-1.08,1.236,1.236,0,0,1-.47.46q-.27.14-.52.3a1.514,1.514,0,0,0-.43.42,1.465,1.465,0,0,0-.18.82V3.98h-1.68V.3a2.57,2.57,0,0,1,.18-1.03,2.107,2.107,0,0,1,.46-.68,2.826,2.826,0,0,1,.61-.45q.33-.18.62-.36a2.349,2.349,0,0,0,.5-.41,1.038,1.038,0,0,0,.25-.61q-.02-.22-.03-.45t-.01-.49a4.6,4.6,0,0,1,1.02-3.33,3.763,3.763,0,0,1,2.8-1.03,3.763,3.763,0,0,1,2.8,1.03,4.6,4.6,0,0,1,1.02,3.33,6.3,6.3,0,0,1-.27,1.96,3.531,3.531,0,0,1-.76,1.34,2.98,2.98,0,0,1-1.2.77A4.765,4.765,0,0,1-41.26.14Zm0-7.12a1.839,1.839,0,0,0-1.63.74,3.592,3.592,0,0,0-.51,2.06,3.449,3.449,0,0,0,.51,2.1,1.931,1.931,0,0,0,1.63.66,1.931,1.931,0,0,0,1.63-.66,3.449,3.449,0,0,0,.51-2.1,3.592,3.592,0,0,0-.51-2.06A1.839,1.839,0,0,0-41.26-6.98Zm6.32-6.42a.177.177,0,0,1,.2-.2h1.28a.177.177,0,0,1,.2.2V-2.62a1.166,1.166,0,0,0,.23.83,1,1,0,0,0,.73.23h.88a.707.707,0,0,1,.8.8q0,.5-.19.63a1.106,1.106,0,0,1-.61.13H-32.6a2.3,2.3,0,0,1-1.8-.61,2.829,2.829,0,0,1-.54-1.91ZM-25.38.14a4.711,4.711,0,0,1-1.66-.27,2.956,2.956,0,0,1-1.22-.85,1.816,1.816,0,0,1-1.08.81A4.915,4.915,0,0,1-30.56,0h-.86a.707.707,0,0,1-.8-.8q0-.5.19-.63a1.106,1.106,0,0,1,.61-.13h1a1.154,1.154,0,0,0,.44-.09,1.055,1.055,0,0,0,.4-.3,1.579,1.579,0,0,0,.29-.56,2.941,2.941,0,0,0,.11-.87q-.02-.2-.02-.39v-.41a4.6,4.6,0,0,1,1.02-3.33,3.763,3.763,0,0,1,2.8-1.03,3.763,3.763,0,0,1,2.8,1.03,4.6,4.6,0,0,1,1.02,3.33,6.3,6.3,0,0,1-.27,1.96,3.531,3.531,0,0,1-.76,1.34,2.98,2.98,0,0,1-1.2.77A4.765,4.765,0,0,1-25.38.14Zm0-7.12a1.839,1.839,0,0,0-1.63.74,3.592,3.592,0,0,0-.51,2.06,3.449,3.449,0,0,0,.51,2.1,1.931,1.931,0,0,0,1.63.66,1.931,1.931,0,0,0,1.63-.66,3.449,3.449,0,0,0,.51-2.1,3.592,3.592,0,0,0-.51-2.06A1.839,1.839,0,0,0-25.38-6.98ZM-11.8-2.92a1.159,1.159,0,0,0,.49,1.02A2.259,2.259,0,0,0-10-1.56h.22a.907.907,0,0,1,.6.17.712.712,0,0,1,.2.57q0,.52-.19.67A.988.988,0,0,1-9.78,0h-.42a2.537,2.537,0,0,1-1.22-.29,1.6,1.6,0,0,1-.76-.87,1.857,1.857,0,0,1-.94.91A4.106,4.106,0,0,1-14.68,0h-4.44a.177.177,0,0,1-.2-.2V-1.36a.177.177,0,0,1,.2-.2h3.82a3.635,3.635,0,0,0,.9-.09,1,1,0,0,0,.52-.3,1.128,1.128,0,0,0,.24-.55,5.09,5.09,0,0,0,.06-.86v-1.6q0-2.02-2.28-2.02h-2.32a.177.177,0,0,1-.2-.2V-8.34a.177.177,0,0,1,.2-.2h2.94a3.576,3.576,0,0,1,2.48.86,3.451,3.451,0,0,1,.96,2.7ZM-9.78,0a1.049,1.049,0,0,1-.6-.14.646.646,0,0,1-.2-.56.931.931,0,0,1,.19-.68.866.866,0,0,1,.61-.18h1.26a1,1,0,0,0,.73-.23,1.166,1.166,0,0,0,.23-.83V-13.4a.177.177,0,0,1,.2-.2h1.28a.177.177,0,0,1,.2.2V-2.52A2.829,2.829,0,0,1-6.42-.61,2.3,2.3,0,0,1-8.22,0ZM-1.4-.2a.177.177,0,0,1-.2.2H-2.88a.177.177,0,0,1-.2-.2V-13.4a.177.177,0,0,1,.2-.2H-1.6a.177.177,0,0,1,.2.2Z" transform="translate(1198.321 2109.123)"/><path class="c" d="M-32.4.14A3.784,3.784,0,0,1-35.2-.88a4.528,4.528,0,0,1-1.02-3.3A4.6,4.6,0,0,1-35.2-7.51a3.763,3.763,0,0,1,2.8-1.03,3.763,3.763,0,0,1,2.8,1.03,4.6,4.6,0,0,1,1.02,3.33,6.3,6.3,0,0,1-.27,1.96,3.531,3.531,0,0,1-.76,1.34,2.98,2.98,0,0,1-1.2.77A4.765,4.765,0,0,1-32.4.14Zm0-7.12a1.839,1.839,0,0,0-1.63.74,3.592,3.592,0,0,0-.51,2.06,3.449,3.449,0,0,0,.51,2.1,1.931,1.931,0,0,0,1.63.66,1.931,1.931,0,0,0,1.63-.66,3.449,3.449,0,0,0,.51-2.1,3.592,3.592,0,0,0-.51-2.06A1.839,1.839,0,0,0-32.4-6.98Zm.54-3.18a.177.177,0,0,1-.2-.2v-1.46a.177.177,0,0,1,.2-.2h1.36a.177.177,0,0,1,.2.2v1.46a.177.177,0,0,1-.2.2Zm-2.44,0a.177.177,0,0,1-.2-.2v-1.46a.177.177,0,0,1,.2-.2h1.36a.177.177,0,0,1,.2.2v1.46a.177.177,0,0,1-.2.2Zm15.48,7.24a1.159,1.159,0,0,0,.49,1.02,2.259,2.259,0,0,0,1.31.34h.22a.907.907,0,0,1,.6.17.712.712,0,0,1,.2.57q0,.52-.19.67A.988.988,0,0,1-16.8,0h-.42a2.537,2.537,0,0,1-1.22-.29,1.6,1.6,0,0,1-.76-.87,1.857,1.857,0,0,1-.94.91A4.106,4.106,0,0,1-21.7,0h-4.44a.177.177,0,0,1-.2-.2V-1.36a.177.177,0,0,1,.2-.2h3.82a3.635,3.635,0,0,0,.9-.09,1,1,0,0,0,.52-.3,1.128,1.128,0,0,0,.24-.55,5.09,5.09,0,0,0,.06-.86v-1.6q0-2.02-2.28-2.02H-25.2a.177.177,0,0,1-.2-.2V-8.34a.177.177,0,0,1,.2-.2h2.94a3.576,3.576,0,0,1,2.48.86,3.451,3.451,0,0,1,.96,2.7ZM-16.8,0a1.049,1.049,0,0,1-.6-.14.646.646,0,0,1-.2-.56.931.931,0,0,1,.19-.68.866.866,0,0,1,.61-.18h1.38a1,1,0,0,0,.73-.23,1.166,1.166,0,0,0,.23-.83V-7.98a.177.177,0,0,1,.2-.2h1.28a.177.177,0,0,1,.2.2v5.46a2.829,2.829,0,0,1-.54,1.91,2.3,2.3,0,0,1-1.8.61Zm3.3,3.72a.177.177,0,0,1-.2-.2V2.06a.177.177,0,0,1,.2-.2h1.36a.177.177,0,0,1,.2.2V3.52a.177.177,0,0,1-.2.2Zm-2.44,0a.177.177,0,0,1-.2-.2V2.06a.177.177,0,0,1,.2-.2h1.36a.177.177,0,0,1,.2.2V3.52a.177.177,0,0,1-.2.2Zm4.86.26a.177.177,0,0,1-.2-.2V2.62a.177.177,0,0,1,.2-.2h.46Q-9,2.42-9,.72v-8.7a.177.177,0,0,1,.2-.2h1.28a.177.177,0,0,1,.2.2v5.06A1.159,1.159,0,0,0-6.83-1.9a2.259,2.259,0,0,0,1.31.34h.22a.907.907,0,0,1,.6.17.712.712,0,0,1,.2.57q0,.52-.19.67A.988.988,0,0,1-5.3,0h-.42a2.012,2.012,0,0,1-1.6-.64V.68a3.383,3.383,0,0,1-.82,2.46,3.206,3.206,0,0,1-2.4.84ZM-5.3,0a1.049,1.049,0,0,1-.6-.14A.646.646,0,0,1-6.1-.7a.931.931,0,0,1,.19-.68.866.866,0,0,1,.61-.18h1.26a1,1,0,0,0,.73-.23,1.166,1.166,0,0,0,.23-.83V-7.98a.177.177,0,0,1,.2-.2H-1.6a.177.177,0,0,1,.2.2v5.46A2.829,2.829,0,0,1-1.94-.61,2.3,2.3,0,0,1-3.74,0Zm1.92,3.66a.177.177,0,0,1-.2-.2V2a.177.177,0,0,1,.2-.2h1.36a.177.177,0,0,1,.2.2V3.46a.177.177,0,0,1-.2.2Z" transform="translate(1238.871 2160.959)"/><path class="c" d="M-30.96-4.5q.08-.14.28-.02l1.1.6a.167.167,0,0,1,.06.26,8.293,8.293,0,0,0-.69,1.38,4.564,4.564,0,0,0-.33,1.72A3.138,3.138,0,0,0-30.25.87a2.447,2.447,0,0,0,.75.9,2.989,2.989,0,0,0,1,.47,4.213,4.213,0,0,0,1.06.14,3.244,3.244,0,0,0,2.1-.66,2.588,2.588,0,0,0,.82-2.14V-13.4a.177.177,0,0,1,.2-.2h1.28a.177.177,0,0,1,.2.2V-2.92a1.159,1.159,0,0,0,.49,1.02,2.259,2.259,0,0,0,1.31.34h.22a.907.907,0,0,1,.6.17.712.712,0,0,1,.2.57q0,.52-.19.67a.988.988,0,0,1-.61.15h-.42a2.012,2.012,0,0,1-1.6-.64V-.4a4.25,4.25,0,0,1-1.21,3.22,4.848,4.848,0,0,1-3.49,1.16,6.145,6.145,0,0,1-1.95-.29,4.048,4.048,0,0,1-1.48-.85,3.859,3.859,0,0,1-.95-1.37A4.8,4.8,0,0,1-32.26-.4a6.688,6.688,0,0,1,.39-2.27A7.676,7.676,0,0,1-30.96-4.5Zm11.82-6.42a1.649,1.649,0,0,1-.26-.48,1.9,1.9,0,0,1-.1-.64,2.172,2.172,0,0,1,.1-.63,1.556,1.556,0,0,1,.36-.61,2.112,2.112,0,0,1,.67-.47,2.506,2.506,0,0,1,1.05-.19,2.566,2.566,0,0,1,1.04.21,1.533,1.533,0,0,1,.7.55.157.157,0,0,1-.02.22l-.52.44q-.06.04-.16-.06a2.06,2.06,0,0,0-.46-.31,1.422,1.422,0,0,0-.64-.13,1.021,1.021,0,0,0-.84.32,1.086,1.086,0,0,0-.26.7,1.048,1.048,0,0,0,.22.7,1.6,1.6,0,0,0,.44.38h2.26q.12,0,.12.14v.64q0,.14-.12.14h-4.26q-.12,0-.12-.14v-.64q0-.14.12-.14ZM-20.68,0a1.049,1.049,0,0,1-.6-.14.646.646,0,0,1-.2-.56.931.931,0,0,1,.19-.68.866.866,0,0,1,.61-.18h1.26a1,1,0,0,0,.73-.23,1.166,1.166,0,0,0,.23-.83V-7.98a.177.177,0,0,1,.2-.2h1.28a.177.177,0,0,1,.2.2v5.46a2.829,2.829,0,0,1-.54,1.91,2.3,2.3,0,0,1-1.8.61Zm6.88-13.4a.177.177,0,0,1,.2-.2h1.28a.177.177,0,0,1,.2.2V-2.62a1.166,1.166,0,0,0,.23.83,1,1,0,0,0,.73.23h.88a.707.707,0,0,1,.8.8q0,.5-.19.63a1.106,1.106,0,0,1-.61.13h-1.18a2.3,2.3,0,0,1-1.8-.61,2.829,2.829,0,0,1-.54-1.91Zm8.2,6.42a2.8,2.8,0,0,0-1.25.28,3.386,3.386,0,0,0-1.01.76.183.183,0,0,1-.28.02l-.88-.72q-.18-.14-.06-.28A4.631,4.631,0,0,1-7.69-8.08a4.135,4.135,0,0,1,2.03-.46,5.154,5.154,0,0,1,2.26.43A3.674,3.674,0,0,1-2.01-6.98,4.247,4.247,0,0,1-1.3-5.36a8.919,8.919,0,0,1,.2,1.9A6.8,6.8,0,0,1-1.27-1.8,2.548,2.548,0,0,1-1.79-.74a1.92,1.92,0,0,1-.9.57A4.384,4.384,0,0,1-3.98,0h-6.3a.707.707,0,0,1-.8-.8q0-.5.19-.63a1.106,1.106,0,0,1,.61-.13H-4.6a3.635,3.635,0,0,0,.9-.09.968.968,0,0,0,.52-.31,1.224,1.224,0,0,0,.24-.59,5.813,5.813,0,0,0,.06-.91,6.8,6.8,0,0,0-.14-1.43,3.262,3.262,0,0,0-.45-1.12,2.025,2.025,0,0,0-.83-.72A2.993,2.993,0,0,0-5.6-6.98Z" transform="translate(1131.049 2070.366)"/><path class="c" d="M-44.66-13.4a.177.177,0,0,1,.2-.2h1.28a.177.177,0,0,1,.2.2V-2.62a1.166,1.166,0,0,0,.23.83,1,1,0,0,0,.73.23h.88a.707.707,0,0,1,.8.8q0,.5-.19.63a1.106,1.106,0,0,1-.61.13h-1.18a2.3,2.3,0,0,1-1.8-.61,2.829,2.829,0,0,1-.54-1.91Zm7.06,5.22h1.78a3.576,3.576,0,0,1,2.48.86,3.451,3.451,0,0,1,.96,2.7v1.2a6.8,6.8,0,0,1-.17,1.66,2.466,2.466,0,0,1-.52,1.05,1.888,1.888,0,0,1-.89.55,4.617,4.617,0,0,1-1.3.16h-5.88a.707.707,0,0,1-.8-.8q0-.5.19-.63a1.106,1.106,0,0,1,.61-.13h5.26a3.635,3.635,0,0,0,.9-.09,1,1,0,0,0,.52-.3,1.128,1.128,0,0,0,.24-.55,5.09,5.09,0,0,0,.06-.86V-4.6q0-2.02-2.28-2.02h-3.22a.177.177,0,0,1-.2-.2V-7.94a.3.3,0,0,1,.07-.19,1.5,1.5,0,0,1,.11-.13l4.38-5.16a.19.19,0,0,1,.26-.06l.96.8a.205.205,0,0,1,.08.28Zm7.72-5.22a.177.177,0,0,1,.2-.2h1.28a.177.177,0,0,1,.2.2V-2.62a1.166,1.166,0,0,0,.23.83,1,1,0,0,0,.73.23h.88a.707.707,0,0,1,.8.8q0,.5-.19.63a1.106,1.106,0,0,1-.61.13h-1.18a2.3,2.3,0,0,1-1.8-.61,2.829,2.829,0,0,1-.54-1.91Zm7.06,5.22h1.78a3.576,3.576,0,0,1,2.48.86,3.451,3.451,0,0,1,.96,2.7v1.2q0,.16-.01.32t-.01.32a1.094,1.094,0,0,0,.53.92,2.4,2.4,0,0,0,1.27.3h.22a.907.907,0,0,1,.6.17.712.712,0,0,1,.2.57q0,.52-.19.67A.988.988,0,0,1-15.6,0h-.42a2.554,2.554,0,0,1-1.21-.29A1.6,1.6,0,0,1-18-1.14a1.87,1.87,0,0,1-.94.89A4.042,4.042,0,0,1-20.48,0h-5.88a.707.707,0,0,1-.8-.8q0-.5.19-.63a1.106,1.106,0,0,1,.61-.13h5.26a3.635,3.635,0,0,0,.9-.09,1,1,0,0,0,.52-.3,1.128,1.128,0,0,0,.24-.55,5.09,5.09,0,0,0,.06-.86V-4.6q0-2.02-2.28-2.02h-3.22a.177.177,0,0,1-.2-.2V-7.94a.3.3,0,0,1,.07-.19,1.5,1.5,0,0,1,.11-.13l4.38-5.16a.19.19,0,0,1,.26-.06l.96.8a.205.205,0,0,1,.08.28ZM-9.5,0a2.316,2.316,0,0,1-1.12-.26,1.749,1.749,0,0,1-.74-.78A2.072,2.072,0,0,1-13.44,0H-15.6a1.049,1.049,0,0,1-.6-.14.646.646,0,0,1-.2-.56.931.931,0,0,1,.19-.68.866.866,0,0,1,.61-.18h1.86a1,1,0,0,0,.73-.23,1.166,1.166,0,0,0,.23-.83V-6.26a.177.177,0,0,1,.2-.2h1.28a.177.177,0,0,1,.2.2v3.34a1.168,1.168,0,0,0,.48,1.02,2.172,2.172,0,0,0,1.28.34h.5a1,1,0,0,0,.73-.23,1.166,1.166,0,0,0,.23-.83V-6.26a.177.177,0,0,1,.2-.2H-6.4a.177.177,0,0,1,.2.2v3.34A1.168,1.168,0,0,0-5.72-1.9a2.172,2.172,0,0,0,1.28.34h.5a1,1,0,0,0,.73-.23,1.166,1.166,0,0,0,.23-.83V-7.98a.177.177,0,0,1,.2-.2H-1.5a.177.177,0,0,1,.2.2v5.46A2.829,2.829,0,0,1-1.84-.61,2.3,2.3,0,0,1-3.64,0H-4.6A2.316,2.316,0,0,1-5.72-.26a1.749,1.749,0,0,1-.74-.78A2.072,2.072,0,0,1-8.54,0Z" transform="translate(695.696 2033.487)"/><path class="c" d="M-25.64-1.56a1.031,1.031,0,0,0,.75-.23,1.166,1.166,0,0,0,.23-.83V-13.4a.177.177,0,0,1,.2-.2h1.28a.177.177,0,0,1,.2.2V-2.52a2.829,2.829,0,0,1-.54,1.91A2.36,2.36,0,0,1-25.36,0h-9.62a2.3,2.3,0,0,1-1.8-.61,2.829,2.829,0,0,1-.54-1.91V-6.7a.177.177,0,0,1,.2-.2h1.28a.177.177,0,0,1,.2.2v4.08a1.166,1.166,0,0,0,.23.83,1,1,0,0,0,.73.23Zm-4.08-4.9q.24,0,.3-.1a.647.647,0,0,0,.06-.32v-.4q0-.5-.54-.5h-1.08a.247.247,0,0,1-.28-.28V-8.4a.3.3,0,0,1,.03-.15.465.465,0,0,1,.07-.09l1.58-1.88a.24.24,0,0,1,.19-.09.214.214,0,0,1,.13.05l.4.34a.185.185,0,0,1,.07.19.63.63,0,0,1-.07.15l-1.02,1.2h.32q1.18,0,1.18,1.4v.36a1.587,1.587,0,0,1-.27,1.08,1.2,1.2,0,0,1-.89.28H-31.8a.177.177,0,0,1-.2-.2v-.5a.177.177,0,0,1,.2-.2ZM-18.78,3.98a.177.177,0,0,1-.2-.2V2.62a.177.177,0,0,1,.2-.2h2.4a2.886,2.886,0,0,0,.74-.09,1.5,1.5,0,0,0,.59-.3,1.372,1.372,0,0,0,.39-.58,2.653,2.653,0,0,0,.14-.93V0h-2.14a5.6,5.6,0,0,1-1.59-.21,2.963,2.963,0,0,1-1.21-.68,2.962,2.962,0,0,1-.76-1.25,6.131,6.131,0,0,1-.26-1.92,5.8,5.8,0,0,1,.31-1.99,3.921,3.921,0,0,1,.84-1.4,3.38,3.38,0,0,1,1.23-.82,4.077,4.077,0,0,1,1.48-.27,3.7,3.7,0,0,1,2.78,1.03,4.658,4.658,0,0,1,1,3.33v2.62h1.38a.907.907,0,0,1,.6.17.712.712,0,0,1,.2.57q0,.52-.19.67a.988.988,0,0,1-.61.15h-1.38V.48a4.53,4.53,0,0,1-.25,1.6,2.81,2.81,0,0,1-.7,1.08,2.791,2.791,0,0,1-1.09.62,4.746,4.746,0,0,1-1.42.2Zm2.16-10.96a1.875,1.875,0,0,0-1.59.8,3.49,3.49,0,0,0-.59,2.12,2.657,2.657,0,0,0,.57,1.96,2.372,2.372,0,0,0,1.69.54h2.02V-4.18a3.706,3.706,0,0,0-.49-2.06A1.787,1.787,0,0,0-16.62-6.98ZM-11.3,0a1.049,1.049,0,0,1-.6-.14.646.646,0,0,1-.2-.56.931.931,0,0,1,.19-.68.866.866,0,0,1,.61-.18h1.26a1,1,0,0,0,.73-.23,1.166,1.166,0,0,0,.23-.83V-7.98a.177.177,0,0,1,.2-.2H-7.6a.177.177,0,0,1,.2.2v5.06A1.159,1.159,0,0,0-6.91-1.9a2.259,2.259,0,0,0,1.31.34h.24a.907.907,0,0,1,.6.17.712.712,0,0,1,.2.57q0,.52-.19.67A.988.988,0,0,1-5.36,0H-5.8A2.316,2.316,0,0,1-6.92-.26a1.749,1.749,0,0,1-.74-.78A2.072,2.072,0,0,1-9.74,0Zm2.42,3.66a.177.177,0,0,1-.2-.2V2a.177.177,0,0,1,.2-.2h1.36a.177.177,0,0,1,.2.2V3.46a.177.177,0,0,1-.2.2ZM-5.52,0a1.049,1.049,0,0,1-.6-.14.646.646,0,0,1-.2-.56.931.931,0,0,1,.19-.68.866.866,0,0,1,.61-.18h1.38a1,1,0,0,0,.73-.23,1.166,1.166,0,0,0,.23-.83V-7.98a.177.177,0,0,1,.2-.2H-1.7a.177.177,0,0,1,.2.2v5.46A2.829,2.829,0,0,1-2.04-.61,2.3,2.3,0,0,1-3.84,0ZM-1.8-10.16a.177.177,0,0,1-.2-.2v-1.46a.177.177,0,0,1,.2-.2H-.44a.177.177,0,0,1,.2.2v1.46a.177.177,0,0,1-.2.2Zm-2.44,0a.177.177,0,0,1-.2-.2v-1.46a.177.177,0,0,1,.2-.2h1.36a.177.177,0,0,1,.2.2v1.46a.177.177,0,0,1-.2.2Z" transform="translate(619.146 2076.937)"/><path class="c" d="M-105.98.14a3.784,3.784,0,0,1-2.8-1.02,4.528,4.528,0,0,1-1.02-3.3,4.6,4.6,0,0,1,1.02-3.33,3.763,3.763,0,0,1,2.8-1.03,3.763,3.763,0,0,1,2.8,1.03,4.6,4.6,0,0,1,1.02,3.33,6.3,6.3,0,0,1-.27,1.96,3.531,3.531,0,0,1-.76,1.34,2.98,2.98,0,0,1-1.2.77A4.765,4.765,0,0,1-105.98.14Zm0-7.12a1.839,1.839,0,0,0-1.63.74,3.592,3.592,0,0,0-.51,2.06,3.449,3.449,0,0,0,.51,2.1,1.931,1.931,0,0,0,1.63.66,1.931,1.931,0,0,0,1.63-.66,3.449,3.449,0,0,0,.51-2.1,3.592,3.592,0,0,0-.51-2.06A1.839,1.839,0,0,0-105.98-6.98Zm.54-3.18a.177.177,0,0,1-.2-.2v-1.46a.177.177,0,0,1,.2-.2h1.36a.177.177,0,0,1,.2.2v1.46a.177.177,0,0,1-.2.2Zm-2.44,0a.177.177,0,0,1-.2-.2v-1.46a.177.177,0,0,1,.2-.2h1.36a.177.177,0,0,1,.2.2v1.46a.177.177,0,0,1-.2.2Zm7.02,14.14a.177.177,0,0,1-.2-.2V2.62a.177.177,0,0,1,.2-.2h.46q1.62,0,1.62-1.7v-8.7a.177.177,0,0,1,.2-.2h1.28a.177.177,0,0,1,.2.2V.68a3.383,3.383,0,0,1-.82,2.46,3.206,3.206,0,0,1-2.4.84Zm7.86,0a.177.177,0,0,1-.2-.2V2.62a.177.177,0,0,1,.2-.2h2.4a2.886,2.886,0,0,0,.74-.09,1.5,1.5,0,0,0,.59-.3,1.372,1.372,0,0,0,.39-.58,2.653,2.653,0,0,0,.14-.93V0h-2.14a5.6,5.6,0,0,1-1.59-.21,2.963,2.963,0,0,1-1.21-.68,2.962,2.962,0,0,1-.76-1.25,6.131,6.131,0,0,1-.26-1.92,5.8,5.8,0,0,1,.31-1.99,3.921,3.921,0,0,1,.84-1.4,3.379,3.379,0,0,1,1.23-.82,4.077,4.077,0,0,1,1.48-.27,3.7,3.7,0,0,1,2.78,1.03,4.658,4.658,0,0,1,1,3.33v2.62h1.38a.907.907,0,0,1,.6.17.712.712,0,0,1,.2.57q0,.52-.19.67a.988.988,0,0,1-.61.15h-1.38V.48a4.53,4.53,0,0,1-.25,1.6,2.81,2.81,0,0,1-.7,1.08,2.791,2.791,0,0,1-1.09.62,4.746,4.746,0,0,1-1.42.2Zm2.16-10.96a1.875,1.875,0,0,0-1.59.8,3.49,3.49,0,0,0-.59,2.12,2.657,2.657,0,0,0,.57,1.96,2.372,2.372,0,0,0,1.69.54h2.02V-4.18a3.706,3.706,0,0,0-.49-2.06A1.787,1.787,0,0,0-90.84-6.98ZM-85.52,0a1.049,1.049,0,0,1-.6-.14.646.646,0,0,1-.2-.56.931.931,0,0,1,.19-.68.866.866,0,0,1,.61-.18h1.26a1,1,0,0,0,.73-.23,1.166,1.166,0,0,0,.23-.83V-7.98a.177.177,0,0,1,.2-.2h1.28a.177.177,0,0,1,.2.2v5.06a1.159,1.159,0,0,0,.49,1.02,2.259,2.259,0,0,0,1.31.34h.24a.907.907,0,0,1,.6.17.712.712,0,0,1,.2.57q0,.52-.19.67a.988.988,0,0,1-.61.15h-.44a2.316,2.316,0,0,1-1.12-.26,1.749,1.749,0,0,1-.74-.78A2.072,2.072,0,0,1-83.96,0Zm2.38-10.16a.177.177,0,0,1-.2-.2v-1.46a.177.177,0,0,1,.2-.2h1.36a.177.177,0,0,1,.2.2v1.46a.177.177,0,0,1-.2.2ZM-73.7.14a4.711,4.711,0,0,1-1.66-.27,2.956,2.956,0,0,1-1.22-.85,1.816,1.816,0,0,1-1.08.81A4.915,4.915,0,0,1-78.88,0h-.86a.707.707,0,0,1-.8-.8q0-.5.19-.63a1.106,1.106,0,0,1,.61-.13h1a1.154,1.154,0,0,0,.44-.09,1.055,1.055,0,0,0,.4-.3,1.579,1.579,0,0,0,.29-.56,2.941,2.941,0,0,0,.11-.87q-.02-.2-.02-.39v-.41A4.6,4.6,0,0,1-76.5-7.51a3.763,3.763,0,0,1,2.8-1.03,3.763,3.763,0,0,1,2.8,1.03,4.6,4.6,0,0,1,1.02,3.33q0,.22-.01.44t-.03.42a1.958,1.958,0,0,0,.41,1.39,1.194,1.194,0,0,0,.83.37h.58a.907.907,0,0,1,.6.17.712.712,0,0,1,.2.57q0,.52-.19.67A.988.988,0,0,1-68.1,0h-.44q-.28,0-.6-.03a2.94,2.94,0,0,1-.63-.13,2.31,2.31,0,0,1-.59-.29,1.681,1.681,0,0,1-.48-.51,2.873,2.873,0,0,1-1.22.84A4.811,4.811,0,0,1-73.7.14Zm0-7.12a1.839,1.839,0,0,0-1.63.74,3.592,3.592,0,0,0-.51,2.06,3.449,3.449,0,0,0,.51,2.1,1.931,1.931,0,0,0,1.63.66,1.931,1.931,0,0,0,1.63-.66,3.449,3.449,0,0,0,.51-2.1,3.592,3.592,0,0,0-.51-2.06A1.839,1.839,0,0,0-73.7-6.98ZM-68.12,0a1.049,1.049,0,0,1-.6-.14.646.646,0,0,1-.2-.56.931.931,0,0,1,.19-.68.866.866,0,0,1,.61-.18h1.26a1,1,0,0,0,.73-.23,1.166,1.166,0,0,0,.23-.83V-13.4a.177.177,0,0,1,.2-.2h1.28a.177.177,0,0,1,.2.2V-2.52a2.829,2.829,0,0,1-.54,1.91,2.3,2.3,0,0,1-1.8.61Zm8.38-.2a.177.177,0,0,1-.2.2h-1.28a.177.177,0,0,1-.2-.2V-13.4a.177.177,0,0,1,.2-.2h1.28a.177.177,0,0,1,.2.2Zm12.7-8.34V-9.4a.177.177,0,0,1,.2-.2h1.28a.177.177,0,0,1,.2.2v6.78a1.166,1.166,0,0,0,.23.83,1,1,0,0,0,.73.23h.88a.707.707,0,0,1,.8.8q0,.5-.19.63a1.106,1.106,0,0,1-.61.13H-44.7a2.718,2.718,0,0,1-1.53-.37,1.86,1.86,0,0,1-.73-1.23,2.606,2.606,0,0,1-.96.54,3.967,3.967,0,0,1-1.22.18,4.622,4.622,0,0,1-1.45-.22,3.138,3.138,0,0,1-1.16-.67,3.1,3.1,0,0,1-.77-1.14,4.322,4.322,0,0,1-.28-1.63,4.855,4.855,0,0,1,.32-1.88,3.41,3.41,0,0,1,.84-1.23,3.146,3.146,0,0,1,1.21-.68A4.884,4.884,0,0,1-49-8.54Zm-2.08,6.1a1.829,1.829,0,0,0,1.61-.67,3.218,3.218,0,0,0,.47-1.87v-2H-49a2.2,2.2,0,0,0-1.53.53,2.5,2.5,0,0,0-.59,1.91,2.155,2.155,0,0,0,.52,1.57A1.98,1.98,0,0,0-49.12-2.44Zm.7-8.52a.177.177,0,0,1-.2-.2v-1.46a.177.177,0,0,1,.2-.2h1.36a.177.177,0,0,1,.2.2v1.46a.177.177,0,0,1-.2.2Zm-2.44,0a.177.177,0,0,1-.2-.2v-1.46a.177.177,0,0,1,.2-.2h1.36a.177.177,0,0,1,.2.2v1.46a.177.177,0,0,1-.2.2ZM-43.38,0a1.049,1.049,0,0,1-.6-.14.646.646,0,0,1-.2-.56.931.931,0,0,1,.19-.68.866.866,0,0,1,.61-.18h1.26a1,1,0,0,0,.73-.23,1.166,1.166,0,0,0,.23-.83V-7.98a.177.177,0,0,1,.2-.2h1.28a.177.177,0,0,1,.2.2v5.06a1.159,1.159,0,0,0,.49,1.02,2.259,2.259,0,0,0,1.31.34h.24a.907.907,0,0,1,.6.17.712.712,0,0,1,.2.57q0,.52-.19.67a.988.988,0,0,1-.61.15h-.44A2.316,2.316,0,0,1-39-.26a1.749,1.749,0,0,1-.74-.78A2.072,2.072,0,0,1-41.82,0ZM-41-10.16a.177.177,0,0,1-.2-.2v-1.46a.177.177,0,0,1,.2-.2h1.36a.177.177,0,0,1,.2.2v1.46a.177.177,0,0,1-.2.2ZM-37.6,0a1.049,1.049,0,0,1-.6-.14.646.646,0,0,1-.2-.56.931.931,0,0,1,.19-.68.866.866,0,0,1,.61-.18h1.38a1,1,0,0,0,.73-.23,1.166,1.166,0,0,0,.23-.83V-7.98a.177.177,0,0,1,.2-.2h1.28a.177.177,0,0,1,.2.2v5.46a2.829,2.829,0,0,1-.54,1.91,2.3,2.3,0,0,1-1.8.61Zm3.3,3.72a.177.177,0,0,1-.2-.2V2.06a.177.177,0,0,1,.2-.2h1.36a.177.177,0,0,1,.2.2V3.52a.177.177,0,0,1-.2.2Zm-2.44,0a.177.177,0,0,1-.2-.2V2.06a.177.177,0,0,1,.2-.2h1.36a.177.177,0,0,1,.2.2V3.52a.177.177,0,0,1-.2.2Zm13.32-6.64a1.159,1.159,0,0,0,.49,1.02,2.259,2.259,0,0,0,1.31.34h.22a.907.907,0,0,1,.6.17.712.712,0,0,1,.2.57q0,.52-.19.67A.988.988,0,0,1-21.4,0h-.42a2.537,2.537,0,0,1-1.22-.29,1.6,1.6,0,0,1-.76-.87,1.857,1.857,0,0,1-.94.91A4.106,4.106,0,0,1-26.3,0h-4.44a.177.177,0,0,1-.2-.2V-1.36a.177.177,0,0,1,.2-.2h3.82a3.635,3.635,0,0,0,.9-.09,1,1,0,0,0,.52-.3,1.128,1.128,0,0,0,.24-.55,5.09,5.09,0,0,0,.06-.86v-1.6q0-2.02-2.28-2.02H-29.8a.177.177,0,0,1-.2-.2V-8.34a.177.177,0,0,1,.2-.2h2.94a3.576,3.576,0,0,1,2.48.86,3.451,3.451,0,0,1,.96,2.7ZM-15.36.14a4.711,4.711,0,0,1-1.66-.27,2.956,2.956,0,0,1-1.22-.85,1.816,1.816,0,0,1-1.08.81A4.915,4.915,0,0,1-20.54,0h-.86a.707.707,0,0,1-.8-.8q0-.5.19-.63a1.106,1.106,0,0,1,.61-.13h1a1.154,1.154,0,0,0,.44-.09,1.055,1.055,0,0,0,.4-.3,1.579,1.579,0,0,0,.29-.56,2.941,2.941,0,0,0,.11-.87q-.02-.2-.02-.39v-.41a4.6,4.6,0,0,1,1.02-3.33,3.763,3.763,0,0,1,2.8-1.03,3.763,3.763,0,0,1,2.8,1.03,4.6,4.6,0,0,1,1.02,3.33q0,.22-.01.44t-.03.42a1.958,1.958,0,0,0,.41,1.39,1.194,1.194,0,0,0,.83.37h.58a.907.907,0,0,1,.6.17.712.712,0,0,1,.2.57q0,.52-.19.67A.988.988,0,0,1-9.76,0h-.44q-.28,0-.6-.03a2.94,2.94,0,0,1-.63-.13,2.31,2.31,0,0,1-.59-.29,1.681,1.681,0,0,1-.48-.51,2.873,2.873,0,0,1-1.22.84A4.81,4.81,0,0,1-15.36.14Zm0-7.12a1.839,1.839,0,0,0-1.63.74,3.592,3.592,0,0,0-.51,2.06,3.449,3.449,0,0,0,.51,2.1,1.931,1.931,0,0,0,1.63.66,1.931,1.931,0,0,0,1.63-.66,3.449,3.449,0,0,0,.51-2.1,3.592,3.592,0,0,0-.51-2.06A1.839,1.839,0,0,0-15.36-6.98ZM-9.78,0a1.049,1.049,0,0,1-.6-.14.646.646,0,0,1-.2-.56.931.931,0,0,1,.19-.68.866.866,0,0,1,.61-.18h1.26a1,1,0,0,0,.73-.23,1.166,1.166,0,0,0,.23-.83V-13.4a.177.177,0,0,1,.2-.2h1.28a.177.177,0,0,1,.2.2V-2.52A2.829,2.829,0,0,1-6.42-.61,2.3,2.3,0,0,1-8.22,0ZM-1.4-.2a.177.177,0,0,1-.2.2H-2.88a.177.177,0,0,1-.2-.2V-13.4a.177.177,0,0,1,.2-.2H-1.6a.177.177,0,0,1,.2.2Z" transform="translate(692.146 2206.17)"/><path class="c" d="M-25.88.14a3.784,3.784,0,0,1-2.8-1.02,4.528,4.528,0,0,1-1.02-3.3,4.6,4.6,0,0,1,1.02-3.33,3.763,3.763,0,0,1,2.8-1.03,3.763,3.763,0,0,1,2.8,1.03,4.6,4.6,0,0,1,1.02,3.33,6.3,6.3,0,0,1-.27,1.96,3.531,3.531,0,0,1-.76,1.34,2.98,2.98,0,0,1-1.2.77A4.765,4.765,0,0,1-25.88.14Zm0-7.12a1.839,1.839,0,0,0-1.63.74,3.592,3.592,0,0,0-.51,2.06,3.449,3.449,0,0,0,.51,2.1,1.931,1.931,0,0,0,1.63.66,1.931,1.931,0,0,0,1.63-.66,3.449,3.449,0,0,0,.51-2.1,3.592,3.592,0,0,0-.51-2.06A1.839,1.839,0,0,0-25.88-6.98Zm.54-3.18a.177.177,0,0,1-.2-.2v-1.46a.177.177,0,0,1,.2-.2h1.36a.177.177,0,0,1,.2.2v1.46a.177.177,0,0,1-.2.2Zm-2.44,0a.177.177,0,0,1-.2-.2v-1.46a.177.177,0,0,1,.2-.2h1.36a.177.177,0,0,1,.2.2v1.46a.177.177,0,0,1-.2.2ZM-12.3-2.92a1.159,1.159,0,0,0,.49,1.02,2.259,2.259,0,0,0,1.31.34h.22a.907.907,0,0,1,.6.17.712.712,0,0,1,.2.57q0,.52-.19.67a.988.988,0,0,1-.61.15h-.42a2.537,2.537,0,0,1-1.22-.29,1.6,1.6,0,0,1-.76-.87,1.857,1.857,0,0,1-.94.91A4.106,4.106,0,0,1-15.18,0h-4.44a.177.177,0,0,1-.2-.2V-1.36a.177.177,0,0,1,.2-.2h3.82a3.635,3.635,0,0,0,.9-.09,1,1,0,0,0,.52-.3,1.128,1.128,0,0,0,.24-.55,5.09,5.09,0,0,0,.06-.86v-1.6q0-2.02-2.28-2.02h-2.32a.177.177,0,0,1-.2-.2V-8.34a.177.177,0,0,1,.2-.2h2.94a3.576,3.576,0,0,1,2.48.86,3.451,3.451,0,0,1,.96,2.7Zm6.7-4.06a2.8,2.8,0,0,0-1.25.28,3.386,3.386,0,0,0-1.01.76.183.183,0,0,1-.28.02l-.88-.72q-.18-.14-.06-.28A4.631,4.631,0,0,1-7.69-8.08a4.135,4.135,0,0,1,2.03-.46,5.154,5.154,0,0,1,2.26.43A3.674,3.674,0,0,1-2.01-6.98,4.247,4.247,0,0,1-1.3-5.36a8.919,8.919,0,0,1,.2,1.9A6.8,6.8,0,0,1-1.27-1.8,2.548,2.548,0,0,1-1.79-.74a1.92,1.92,0,0,1-.9.57A4.384,4.384,0,0,1-3.98,0h-6.3a.707.707,0,0,1-.8-.8q0-.5.19-.63a1.106,1.106,0,0,1,.61-.13H-4.6a3.635,3.635,0,0,0,.9-.09.968.968,0,0,0,.52-.31,1.224,1.224,0,0,0,.24-.59,5.813,5.813,0,0,0,.06-.91,6.8,6.8,0,0,0-.14-1.43,3.262,3.262,0,0,0-.45-1.12,2.025,2.025,0,0,0-.83-.72A2.993,2.993,0,0,0-5.6-6.98ZM-5.96,3.68a.177.177,0,0,1-.2-.2V2.02a.177.177,0,0,1,.2-.2H-4.6a.177.177,0,0,1,.2.2V3.48a.177.177,0,0,1-.2.2Z" transform="translate(675.899 2267.524)"/><path class="c" d="M-34.42-8.54V-9.4a.177.177,0,0,1,.2-.2h1.28a.177.177,0,0,1,.2.2v6.78a1.166,1.166,0,0,0,.23.83,1,1,0,0,0,.73.23h.88a.707.707,0,0,1,.8.8q0,.5-.19.63A1.106,1.106,0,0,1-30.9,0h-1.18a2.718,2.718,0,0,1-1.53-.37,1.86,1.86,0,0,1-.73-1.23,2.606,2.606,0,0,1-.96.54,3.967,3.967,0,0,1-1.22.18,4.622,4.622,0,0,1-1.45-.22,3.138,3.138,0,0,1-1.16-.67,3.1,3.1,0,0,1-.77-1.14,4.322,4.322,0,0,1-.28-1.63,4.855,4.855,0,0,1,.32-1.88,3.41,3.41,0,0,1,.84-1.23,3.146,3.146,0,0,1,1.21-.68,4.884,4.884,0,0,1,1.43-.21Zm-2.08,6.1a1.829,1.829,0,0,0,1.61-.67,3.218,3.218,0,0,0,.47-1.87v-2h-1.96a2.2,2.2,0,0,0-1.53.53,2.5,2.5,0,0,0-.59,1.91,2.155,2.155,0,0,0,.52,1.57A1.98,1.98,0,0,0-36.5-2.44Zm.7-8.52a.177.177,0,0,1-.2-.2v-1.46a.177.177,0,0,1,.2-.2h1.36a.177.177,0,0,1,.2.2v1.46a.177.177,0,0,1-.2.2Zm-2.44,0a.177.177,0,0,1-.2-.2v-1.46a.177.177,0,0,1,.2-.2h1.36a.177.177,0,0,1,.2.2v1.46a.177.177,0,0,1-.2.2Zm12.02,3.98a2.8,2.8,0,0,0-1.25.28,3.386,3.386,0,0,0-1.01.76.183.183,0,0,1-.28.02l-.88-.72q-.18-.14-.06-.28a4.631,4.631,0,0,1,1.39-1.16,4.135,4.135,0,0,1,2.03-.46,5.154,5.154,0,0,1,2.26.43,3.674,3.674,0,0,1,1.39,1.13,4.247,4.247,0,0,1,.71,1.62,8.919,8.919,0,0,1,.2,1.9,6.8,6.8,0,0,1-.17,1.66,2.548,2.548,0,0,1-.52,1.06,1.92,1.92,0,0,1-.9.57A4.384,4.384,0,0,1-24.6,0h-6.3a.707.707,0,0,1-.8-.8q0-.5.19-.63a1.106,1.106,0,0,1,.61-.13h5.68a3.635,3.635,0,0,0,.9-.09.968.968,0,0,0,.52-.31,1.224,1.224,0,0,0,.24-.59,5.813,5.813,0,0,0,.06-.91,6.8,6.8,0,0,0-.14-1.43,3.262,3.262,0,0,0-.45-1.12,2.025,2.025,0,0,0-.83-.72A2.993,2.993,0,0,0-26.22-6.98Zm7-6.42a.177.177,0,0,1,.2-.2h1.28a.177.177,0,0,1,.2.2V-2.62a1.166,1.166,0,0,0,.23.83,1,1,0,0,0,.73.23h.88a.707.707,0,0,1,.8.8q0,.5-.19.63A1.106,1.106,0,0,1-15.7,0h-1.18a2.3,2.3,0,0,1-1.8-.61,2.829,2.829,0,0,1-.54-1.91ZM-15.56,0a1.049,1.049,0,0,1-.6-.14.646.646,0,0,1-.2-.56.931.931,0,0,1,.19-.68.866.866,0,0,1,.61-.18h1.26a1,1,0,0,0,.73-.23,1.166,1.166,0,0,0,.23-.83V-7.98a.177.177,0,0,1,.2-.2h1.28a.177.177,0,0,1,.2.2v5.06a1.159,1.159,0,0,0,.49,1.02,2.259,2.259,0,0,0,1.31.34h.24a.907.907,0,0,1,.6.17.712.712,0,0,1,.2.57q0,.52-.19.67A.988.988,0,0,1-9.62,0h-.44a2.316,2.316,0,0,1-1.12-.26,1.749,1.749,0,0,1-.74-.78A2.072,2.072,0,0,1-14,0Zm2.42,3.66a.177.177,0,0,1-.2-.2V2a.177.177,0,0,1,.2-.2h1.36a.177.177,0,0,1,.2.2V3.46a.177.177,0,0,1-.2.2ZM-9.78,0a1.049,1.049,0,0,1-.6-.14.646.646,0,0,1-.2-.56.931.931,0,0,1,.19-.68.866.866,0,0,1,.61-.18h1.26a1,1,0,0,0,.73-.23,1.166,1.166,0,0,0,.23-.83V-13.4a.177.177,0,0,1,.2-.2h1.28a.177.177,0,0,1,.2.2V-2.52A2.829,2.829,0,0,1-6.42-.61,2.3,2.3,0,0,1-8.22,0ZM-1.4-.2a.177.177,0,0,1-.2.2H-2.88a.177.177,0,0,1-.2-.2V-13.4a.177.177,0,0,1,.2-.2H-1.6a.177.177,0,0,1,.2.2Z" transform="translate(736.696 2329.947)"/><path class="c" d="M-24.5-13.4a.177.177,0,0,1,.2-.2h1.28a.177.177,0,0,1,.2.2V-2.62a1.166,1.166,0,0,0,.23.83,1,1,0,0,0,.73.23h.88a.707.707,0,0,1,.8.8q0,.5-.19.63a1.106,1.106,0,0,1-.61.13h-1.18a2.3,2.3,0,0,1-1.8-.61,2.829,2.829,0,0,1-.54-1.91ZM-21.78-.8q0-.5.19-.63a1.106,1.106,0,0,1,.61-.13h2.22V-4.18a5.986,5.986,0,0,1,.29-1.97,3.755,3.755,0,0,1,.79-1.36,3.034,3.034,0,0,1,1.19-.78,4.282,4.282,0,0,1,1.47-.25,3.842,3.842,0,0,1,2.84,1,4.257,4.257,0,0,1,1,3.12,5.477,5.477,0,0,1-.24,1.62,4.509,4.509,0,0,1-.56,1.24h2.22a1.106,1.106,0,0,1,.61.13q.19.13.19.63a.707.707,0,0,1-.8.8h-2.02a2.13,2.13,0,0,1,.42,1.38,2.772,2.772,0,0,1-.22,1.11,2.317,2.317,0,0,1-.67.88,3.442,3.442,0,0,1-1.11.59,4.948,4.948,0,0,1-1.56.22,4.652,4.652,0,0,1-2.85-.75,2.712,2.712,0,0,1-.99-2.31V0h-2.22A.707.707,0,0,1-21.78-.8Zm6.76-6.18a1.837,1.837,0,0,0-1.51.68,2.945,2.945,0,0,0-.55,1.9v2.84h2.26a1.638,1.638,0,0,0,.91-.24,1.969,1.969,0,0,0,.61-.63,2.69,2.69,0,0,0,.34-.88,4.841,4.841,0,0,0,.1-.97,3.217,3.217,0,0,0-.54-2A1.918,1.918,0,0,0-15.02-6.98Zm.02,9.6a2.555,2.555,0,0,0,1.52-.34,1.143,1.143,0,0,0,.44-.96A1.779,1.779,0,0,0-13.1.87a1.083,1.083,0,0,0-.23-.43,1.184,1.184,0,0,0-.46-.32A1.984,1.984,0,0,0-14.54,0h-2.54V1.12Q-17.08,2.62-15,2.62ZM-9.78,0a1.049,1.049,0,0,1-.6-.14.646.646,0,0,1-.2-.56.931.931,0,0,1,.19-.68.866.866,0,0,1,.61-.18h1.26a1,1,0,0,0,.73-.23,1.166,1.166,0,0,0,.23-.83V-7.98a.177.177,0,0,1,.2-.2h1.28a.177.177,0,0,1,.2.2v5.46A2.829,2.829,0,0,1-6.42-.61,2.3,2.3,0,0,1-8.22,0Zm1.92,3.66a.177.177,0,0,1-.2-.2V2a.177.177,0,0,1,.2-.2H-6.5a.177.177,0,0,1,.2.2V3.46a.177.177,0,0,1-.2.2ZM-1.4-.2a.177.177,0,0,1-.2.2H-2.88a.177.177,0,0,1-.2-.2V-13.4a.177.177,0,0,1,.2-.2H-1.6a.177.177,0,0,1,.2.2ZM-3.52-15.44a1.85,1.85,0,0,1-.26-.54,2.337,2.337,0,0,1-.1-.7,2.438,2.438,0,0,1,.1-.67,1.749,1.749,0,0,1,.34-.64,1.859,1.859,0,0,1,.63-.48,2.206,2.206,0,0,1,.97-.19,2.292,2.292,0,0,1,.93.18,1.527,1.527,0,0,1,.65.52q.06.14,0,.2l-.42.34q-.14.12-.22.04a1.56,1.56,0,0,0-.42-.33,1.115,1.115,0,0,0-.54-.13,1,1,0,0,0-.83.34,1.248,1.248,0,0,0-.27.8,1.313,1.313,0,0,0,.23.77,2.05,2.05,0,0,0,.45.49H-.22q.12,0,.12.14v.56q0,.14-.12.14H-4.28q-.12,0-.12-.14v-.56q0-.14.12-.14Z" transform="translate(737.293 2373.282)"/><path class="c" d="M-34.36-4.5q.08-.14.28-.02l1.1.6a.167.167,0,0,1,.06.26,8.293,8.293,0,0,0-.69,1.38,4.564,4.564,0,0,0-.33,1.72A3.138,3.138,0,0,0-33.65.87a2.447,2.447,0,0,0,.75.9,2.989,2.989,0,0,0,1,.47,4.213,4.213,0,0,0,1.06.14,3.244,3.244,0,0,0,2.1-.66,2.588,2.588,0,0,0,.82-2.14V-6.26a.177.177,0,0,1,.2-.2h1.28a.177.177,0,0,1,.2.2V-.4a4.25,4.25,0,0,1-1.21,3.22,4.848,4.848,0,0,1-3.49,1.16,6.145,6.145,0,0,1-1.95-.29,4.048,4.048,0,0,1-1.48-.85,3.859,3.859,0,0,1-.95-1.37A4.8,4.8,0,0,1-35.66-.4a6.688,6.688,0,0,1,.39-2.27A7.676,7.676,0,0,1-34.36-4.5Zm3.42-2.46a.177.177,0,0,1-.2-.2V-8.62a.177.177,0,0,1,.2-.2h1.36a.177.177,0,0,1,.2.2v1.46a.177.177,0,0,1-.2.2ZM-21.86-.2a.177.177,0,0,1-.2.2h-1.28a.177.177,0,0,1-.2-.2V-13.4a.177.177,0,0,1,.2-.2h1.28a.177.177,0,0,1,.2.2Zm1.6,4.18a.177.177,0,0,1-.2-.2V2.62a.177.177,0,0,1,.2-.2h.46q1.62,0,1.62-1.7v-8.7a.177.177,0,0,1,.2-.2h1.28a.177.177,0,0,1,.2.2V.68a3.383,3.383,0,0,1-.82,2.46,3.206,3.206,0,0,1-2.4.84ZM-18-10.16a.177.177,0,0,1-.2-.2v-1.46a.177.177,0,0,1,.2-.2h1.36a.177.177,0,0,1,.2.2v1.46a.177.177,0,0,1-.2.2Zm4.2-3.24a.177.177,0,0,1,.2-.2h1.28a.177.177,0,0,1,.2.2V-2.62a1.166,1.166,0,0,0,.23.83,1,1,0,0,0,.73.23h.88a.707.707,0,0,1,.8.8q0,.5-.19.63a1.106,1.106,0,0,1-.61.13h-1.18a2.3,2.3,0,0,1-1.8-.61,2.829,2.829,0,0,1-.54-1.91Zm8.2,6.42a2.8,2.8,0,0,0-1.25.28,3.386,3.386,0,0,0-1.01.76.183.183,0,0,1-.28.02l-.88-.72q-.18-.14-.06-.28A4.631,4.631,0,0,1-7.69-8.08a4.135,4.135,0,0,1,2.03-.46,5.154,5.154,0,0,1,2.26.43A3.674,3.674,0,0,1-2.01-6.98,4.247,4.247,0,0,1-1.3-5.36a8.919,8.919,0,0,1,.2,1.9A6.8,6.8,0,0,1-1.27-1.8,2.548,2.548,0,0,1-1.79-.74a1.92,1.92,0,0,1-.9.57A4.384,4.384,0,0,1-3.98,0h-6.3a.707.707,0,0,1-.8-.8q0-.5.19-.63a1.106,1.106,0,0,1,.61-.13H-4.6a3.635,3.635,0,0,0,.9-.09.968.968,0,0,0,.52-.31,1.224,1.224,0,0,0,.24-.59,5.813,5.813,0,0,0,.06-.91,6.8,6.8,0,0,0-.14-1.43,3.262,3.262,0,0,0-.45-1.12,2.025,2.025,0,0,0-.83-.72A2.993,2.993,0,0,0-5.6-6.98ZM-5.96,3.68a.177.177,0,0,1-.2-.2V2.02a.177.177,0,0,1,.2-.2H-4.6a.177.177,0,0,1,.2.2V3.48a.177.177,0,0,1-.2.2Z" transform="translate(817.366 2396.449)"/><path class="c" d="M-36.1-4.5q.08-.14.28-.02l1.1.6a.167.167,0,0,1,.06.26,8.293,8.293,0,0,0-.69,1.38,4.564,4.564,0,0,0-.33,1.72A3.138,3.138,0,0,0-35.39.87a2.447,2.447,0,0,0,.75.9,2.989,2.989,0,0,0,1,.47,4.213,4.213,0,0,0,1.06.14,3.244,3.244,0,0,0,2.1-.66,2.588,2.588,0,0,0,.82-2.14V-6.26a.177.177,0,0,1,.2-.2h1.28a.177.177,0,0,1,.2.2V-.4a4.25,4.25,0,0,1-1.21,3.22,4.848,4.848,0,0,1-3.49,1.16,6.145,6.145,0,0,1-1.95-.29,4.048,4.048,0,0,1-1.48-.85,3.859,3.859,0,0,1-.95-1.37A4.8,4.8,0,0,1-37.4-.4a6.688,6.688,0,0,1,.39-2.27A7.676,7.676,0,0,1-36.1-4.5Zm3.42-2.46a.177.177,0,0,1-.2-.2V-8.62a.177.177,0,0,1,.2-.2h1.36a.177.177,0,0,1,.2.2v1.46a.177.177,0,0,1-.2.2ZM-23.6-.2a.177.177,0,0,1-.2.2h-1.28a.177.177,0,0,1-.2-.2V-13.4a.177.177,0,0,1,.2-.2h1.28a.177.177,0,0,1,.2.2ZM-22,3.98a.177.177,0,0,1-.2-.2V2.62a.177.177,0,0,1,.2-.2h.46q1.62,0,1.62-1.7v-8.7a.177.177,0,0,1,.2-.2h1.28a.177.177,0,0,1,.2.2v5.06a1.159,1.159,0,0,0,.49,1.02,2.259,2.259,0,0,0,1.31.34h.22a.907.907,0,0,1,.6.17.712.712,0,0,1,.2.57q0,.52-.19.67a.988.988,0,0,1-.61.15h-.42a2.012,2.012,0,0,1-1.6-.64V.68a3.383,3.383,0,0,1-.82,2.46,3.206,3.206,0,0,1-2.4.84ZM-11.54-6.98a2.8,2.8,0,0,0-1.25.28,3.386,3.386,0,0,0-1.01.76.183.183,0,0,1-.28.02l-.88-.72q-.18-.14-.06-.28a4.631,4.631,0,0,1,1.39-1.16,4.135,4.135,0,0,1,2.03-.46,5.154,5.154,0,0,1,2.26.43A3.674,3.674,0,0,1-7.95-6.98a4.247,4.247,0,0,1,.71,1.62,8.919,8.919,0,0,1,.2,1.9q0,.18-.01.34t-.01.32a1.12,1.12,0,0,0,.53.93,2.342,2.342,0,0,0,1.27.31h.22a.907.907,0,0,1,.6.17.712.712,0,0,1,.2.57q0,.52-.19.67A.988.988,0,0,1-5.04,0h-.42A2.537,2.537,0,0,1-6.68-.29a1.6,1.6,0,0,1-.76-.87,1.912,1.912,0,0,1-.95.9A3.918,3.918,0,0,1-9.92,0h-6.3a.707.707,0,0,1-.8-.8q0-.5.19-.63a1.106,1.106,0,0,1,.61-.13h5.68a3.635,3.635,0,0,0,.9-.09.968.968,0,0,0,.52-.31,1.224,1.224,0,0,0,.24-.59,5.813,5.813,0,0,0,.06-.91,6.8,6.8,0,0,0-.14-1.43,3.262,3.262,0,0,0-.45-1.12,2.025,2.025,0,0,0-.83-.72A2.993,2.993,0,0,0-11.54-6.98Zm-.38,10.66a.177.177,0,0,1-.2-.2V2.02a.177.177,0,0,1,.2-.2h1.36a.177.177,0,0,1,.2.2V3.48a.177.177,0,0,1-.2.2ZM-4.9,0a1.049,1.049,0,0,1-.6-.14A.646.646,0,0,1-5.7-.7a.931.931,0,0,1,.19-.68.866.866,0,0,1,.61-.18h1.26a1,1,0,0,0,.73-.23,1.166,1.166,0,0,0,.23-.83V-7.98a.177.177,0,0,1,.2-.2H-1.2a.177.177,0,0,1,.2.2v5.46A2.829,2.829,0,0,1-1.54-.61,2.3,2.3,0,0,1-3.34,0Zm2.38-10.16a.177.177,0,0,1-.2-.2v-1.46a.177.177,0,0,1,.2-.2h1.36a.177.177,0,0,1,.2.2v1.46a.177.177,0,0,1-.2.2Z" transform="translate(1162.543 2392.52)"/><path class="c" d="M-32.4,3.98a.177.177,0,0,1-.2-.2V2.62a.177.177,0,0,1,.2-.2h.46q1.62,0,1.62-1.7v-8.7a.177.177,0,0,1,.2-.2h1.28a.177.177,0,0,1,.2.2v5.06a1.159,1.159,0,0,0,.49,1.02,2.259,2.259,0,0,0,1.31.34h.22a.907.907,0,0,1,.6.17.712.712,0,0,1,.2.57q0,.52-.19.67a.988.988,0,0,1-.61.15h-.42a2.012,2.012,0,0,1-1.6-.64V.68a3.383,3.383,0,0,1-.82,2.46,3.206,3.206,0,0,1-2.4.84Zm15-5.54a.177.177,0,0,1,.2.2V-.2a.177.177,0,0,1-.2.2h-9.22a.707.707,0,0,1-.8-.8q0-.5.19-.63a1.106,1.106,0,0,1,.61-.13h2.28a3.931,3.931,0,0,1-.78-1.16,4.018,4.018,0,0,1-.32-1.68,5.666,5.666,0,0,1,.18-1.35A3.592,3.592,0,0,1-24.6-7.1a3.681,3.681,0,0,1,1.31-1.03,4.812,4.812,0,0,1,2.13-.41,4.513,4.513,0,0,1,2.04.43,3.576,3.576,0,0,1,1.38,1.19.189.189,0,0,1-.06.28l-.88.72a.183.183,0,0,1-.28-.02,2.864,2.864,0,0,0-2.26-1.04,2.244,2.244,0,0,0-1.84.73,2.787,2.787,0,0,0-.6,1.83,2.992,2.992,0,0,0,.24,1.26,3.35,3.35,0,0,0,.55.86,2.382,2.382,0,0,0,.63.51,3.571,3.571,0,0,0,.5.23Zm1.3,5.54a.177.177,0,0,1-.2-.2V2.62a.177.177,0,0,1,.2-.2h.46q1.62,0,1.62-1.7v-8.7a.177.177,0,0,1,.2-.2h1.28a.177.177,0,0,1,.2.2v5.06a1.159,1.159,0,0,0,.49,1.02,2.259,2.259,0,0,0,1.31.34h.22a.907.907,0,0,1,.6.17.712.712,0,0,1,.2.57q0,.52-.19.67a.988.988,0,0,1-.61.15h-.42a2.012,2.012,0,0,1-1.6-.64V.68a3.383,3.383,0,0,1-.82,2.46,3.206,3.206,0,0,1-2.4.84Zm15-5.54a.177.177,0,0,1,.2.2V-.2a.177.177,0,0,1-.2.2h-9.22a.707.707,0,0,1-.8-.8q0-.5.19-.63a1.106,1.106,0,0,1,.61-.13h2.28a3.931,3.931,0,0,1-.78-1.16A4.018,4.018,0,0,1-9.14-4.4a5.666,5.666,0,0,1,.18-1.35A3.592,3.592,0,0,1-8.3-7.1,3.681,3.681,0,0,1-6.99-8.13a4.812,4.812,0,0,1,2.13-.41,4.513,4.513,0,0,1,2.04.43A3.576,3.576,0,0,1-1.44-6.92a.189.189,0,0,1-.06.28l-.88.72a.183.183,0,0,1-.28-.02A2.864,2.864,0,0,0-4.92-6.98a2.244,2.244,0,0,0-1.84.73,2.787,2.787,0,0,0-.6,1.83,2.992,2.992,0,0,0,.24,1.26,3.35,3.35,0,0,0,.55.86,2.382,2.382,0,0,0,.63.51,3.571,3.571,0,0,0,.5.23Z" transform="translate(1015.441 2015.608)"/><g transform="translate(0 32)"><path class="d" d="M730,2010.372h170.03" transform="translate(211.333 347.504)"/><path class="d" d="M730,2010h276.694v34.188" transform="translate(229.792 138.061)"/><path class="d" d="M730,2010.372H918.567v.036h80.9" transform="translate(190.726 115.965)"/><path class="d" d="M730.457,2048h-.322v-32h79.72" transform="translate(335.207 58.96)"/><path class="d" d="M730,2058.192H879.035V2008h63.941" transform="translate(144.848 25.801)"/><path class="d" d="M730,2008h82.769v.061h35.509" transform="translate(127.345 -28.398)"/><path class="d" d="M853.728,2010.372H782.253v.047H730" transform="translate(-103.25 32.81)"/><path class="d" d="M857.534,2028.651v-18.279H730" transform="translate(-22.859 -10.777)"/><path class="d" d="M839.8,2010.372H730" transform="translate(-26.073 158.307)"/><path class="d" d="M859.447,2010.372H775.717v.134H730" transform="translate(-45.715 222.004)"/><path class="d" d="M854.362,2010.408H754.69v-.036H730" transform="translate(20.481 283.77)"/><path class="d" d="M804.967,2010.372H730" transform="translate(93.23 347.504)"/><path class="d" d="M854.362,2010.373H730" transform="translate(20.481 326.147)"/></g></g></svg>